<?xml version="1.0" encoding="UTF-8"?>
<svg id="Capa_2" data-name="Capa 2" xmlns="http://www.w3.org/2000/svg" viewBox="0 0 325.2 306.42">
  <g id="Capa_1-2" data-name="Capa 1">
    <g>
      <path d="M125.1,101.09c0-49.25,31.22-79.7,85.06-84.63V2.08c0-1.15-.93-2.08-2.08-2.08h-62.9c-.87,0-1.65.54-1.95,1.36l-33.63,91.89c-.3.82-1.08,1.36-1.95,1.36h-.32c-.87,0-1.65-.54-1.95-1.36L71.76,1.36c-.3-.82-1.08-1.36-1.95-1.36H2.08C.93,0,0,.93,0,2.08v276.86c0,1.15.93,2.08,2.08,2.08h48.18c1.15,0,2.08-.93,2.08-2.08v-123.13l-3.13-76.35c-.05-1.18.9-2.16,2.08-2.16.88,0,1.66.55,1.95,1.37l49.89,137.77c.66,1.83,3.25,1.83,3.91,0l27.09-74.81c-6.13-11.75-9.02-25.46-9.02-40.54Z"/>
      <path d="M253.93,136.12l-29.39-5.23c-5.42-.96-10.19-2.06-14.38-3.36v56.29l15.99,2.63c27.38,4.43,37.84,13.69,37.84,33.42,0,24.16-15.7,37.44-44.29,37.44-3.18,0-6.37-.18-9.55-.52-18.27-1.97-36.4-9.65-52.34-23.68-2.53-2.23-5.02-4.61-7.43-7.16-.83-.88-2.23-.89-3.05.01l-32.31,35.65c-.69.77-.73,1.94-.07,2.73,21.46,25.77,56.85,42.09,102.73,42.09,70.46,0,107.5-38.65,107.5-91.39,0-44.29-26.17-70.86-71.26-78.91Z"/>
      <path d="M226.56,64.85c24.5,0,44.86,9.39,59.65,24.9.84.88,2.25.88,3.06-.03l31.47-35.17c.71-.79.72-1.99.01-2.78-19.85-22.14-52.4-36.05-94.6-36.05-5.54,0-10.86.25-15.99.72v50.19c4.78-1.18,10.22-1.8,16.4-1.8Z"/>
      <path d="M157.82,167.45v-11.64l3.13-76.35c.05-1.18-.9-2.16-2.08-2.16-.87,0-1.66.55-1.95,1.37l-22.8,62.96c5.35,10.24,13.15,18.99,23.7,25.81Z"/>
    </g>
  </g>
</svg>