<?xml version="1.0" encoding="UTF-8"?>
<svg id="Capa_2" data-name="Capa 2" xmlns="http://www.w3.org/2000/svg" xmlns:xlink="http://www.w3.org/1999/xlink" viewBox="0 0 58.9 18.4">
  <defs>
    <style>
      .cls-1 {
        fill: #3b3e4f;
      }

      .cls-2 {
        fill: #fff;
      }

      .cls-3 {
        fill: url(#Degradado_sin_nombre_7);
      }

      .cls-4 {
        fill: url(#Degradado_sin_nombre_8);
      }
    </style>
    <linearGradient id="Degradado_sin_nombre_8" data-name="Degradado sin nombre 8" x1="-552.33" y1="-271.2" x2="-552.02" y2="-271.2" gradientTransform="translate(26953.72 15820.21) scale(48.8 58.3)" gradientUnits="userSpaceOnUse">
      <stop offset="0" stop-color="#f50"/>
      <stop offset=".41" stop-color="#f50"/>
      <stop offset=".58" stop-color="#ff2000"/>
      <stop offset="1" stop-color="#ff2000"/>
    </linearGradient>
    <linearGradient id="Degradado_sin_nombre_7" data-name="Degradado sin nombre 7" x1="-549.25" y1="-206.14" x2="-548.94" y2="-206.14" gradientTransform="translate(22246.26 2166.12) scale(40.5 10.5)" gradientUnits="userSpaceOnUse">
      <stop offset="0" stop-color="#ff452a"/>
      <stop offset="1" stop-color="#ff2000"/>
    </linearGradient>
  </defs>
  <g id="Capa_1-2" data-name="Capa 1">
    <g id="Branding">
      <g id="logo_brave" data-name="logo brave">
        <g id="Logo_Logotypes_brave_logo-dark" data-name="Logo Logotypes brave logo-dark">
          <g id="Logotypes_brave_logo-dark" data-name="Logotypes brave logo-dark">
            <g id="Group-5">
              <g id="Group-4">
                <path id="Shape" class="cls-1" d="M19.59,9.98V3.66h.6c.49,0,.88.4.88.89h0v2.81c.95-.86,1.76-1.21,2.85-1.23,2.09-.05,3.86,1.54,4.04,3.62.2,2.51-1.59,4.4-3.93,4.4-2.57,0-4.43-1.62-4.43-4.17ZM21.03,10.48c.15,1.31,1.37,2.38,2.67,2.41,1.69.03,2.83-1.09,2.83-2.74s-1.12-2.74-2.76-2.74c-1.75,0-2.94,1.29-2.74,3.08h0Z"/>
                <path id="Shape-2" class="cls-1" d="M30.41,6.28v1.13c.93-1.04,1.48-1.33,2.56-1.33.32,0,.63.03.94.08v1.49c-.33-.09-.68-.14-1.02-.14-.72-.02-1.42.25-1.93.76-.42.43-.55.77-.55,1.45v4.17h-1.53v-7.6h1.52Z"/>
                <path id="Shape-3" class="cls-1" d="M34.27,8.8c.08-.75.22-1.14.53-1.53.63-.78,1.76-1.19,3.36-1.19,1.27,0,2.2.2,2.84.63.54.35.75.88.75,1.8v3.38c0,.75.19,1,.71.99.12,0,.23-.01.35-.03v1.02c-.26.09-.53.13-.8.12-.96,0-1.4-.3-1.7-1.14-.94.88-1.92,1.25-3.31,1.25-1.87,0-3.02-.86-3.02-2.27-.01-.8.45-1.52,1.18-1.85.57-.25.91-.32,2.53-.49,1.38-.14,1.62-.17,2.01-.3.42-.14.61-.37.61-.76,0-.82-.68-1.19-2.09-1.19s-2.03.27-2.3.96c-.13.35-.47.58-.84.59l-.82.02ZM40.31,10.1c-.97.29-1.96.47-2.97.55-1.37.14-1.79.4-1.79,1.1,0,.77.63,1.18,1.87,1.18,1.02,0,1.79-.26,2.34-.77.44-.42.55-.71.55-1.44v-.62Z"/>
                <path id="Shape-4" class="cls-1" d="M46.5,13.89h-.39c-.35,0-.67-.2-.82-.51l-3.3-7.09h.92c.54,0,1.02.31,1.24.81l2.2,5.1,2.27-5.12c.22-.48.7-.79,1.23-.79h.83l-3.37,7.1c-.15.31-.47.51-.81.51h0Z"/>
                <path id="Shape-5" class="cls-1" d="M51.72,10.53c.16,1.47,1.29,2.38,2.97,2.38.96,0,1.67-.29,2.11-.86.26-.33.65-.52,1.07-.52h.89c-.77,1.73-2.15,2.58-4.21,2.58-2.57,0-4.3-1.59-4.3-3.96s1.78-4.04,4.34-4.04c1.85,0,3.34.85,3.94,2.27.27.65.38,1.23.38,2.17h-7.18ZM57.34,9.35c-.35-1.34-1.37-2.1-2.78-2.1s-2.43.76-2.8,2.1h5.58Z"/>
              </g>
              <g id="Build-Icons_Release" data-name="Build-Icons Release">
                <g id="Logo">
                  <path id="Head" class="cls-4" d="M14.86,4.41l.42-1.06s-.54-.59-1.19-1.25-2.04-.27-2.04-.27L10.47,0h-5.54l-1.58,1.82s-1.39-.39-2.04.27S.12,3.35.12,3.35l.42,1.06-.54,1.57s1.59,6.11,1.77,6.86c.37,1.47.62,2.04,1.66,2.79s2.93,2.04,3.23,2.24.69.53,1.04.53.73-.33,1.04-.53,2.2-1.49,3.23-2.24,1.29-1.31,1.66-2.79c.19-.75,1.77-6.86,1.77-6.86l-.55-1.57Z"/>
                  <path id="Face" class="cls-2" d="M7.7,11.45c.11,0,.78.24,1.32.53s.94.49,1.06.57.05.23-.07.31-1.65,1.3-1.8,1.43-.37.36-.52.36-.37-.22-.52-.36-1.69-1.34-1.8-1.43-.19-.23-.07-.31.52-.28,1.06-.57,1.22-.53,1.32-.53ZM7.71,2.8c.26.02.52.07.76.16.46.16.96.35,1.19.35s1.94-.33,1.94-.33c0,0,2.03,2.5,2.03,3.04s-.25.68-.51.95l-1.51,1.65c-.15.15-.45.39-.27.82s.44.97.15,1.52-.79.92-1.1.85-1.06-.46-1.34-.64-1.14-.91-1.14-1.19.89-.78,1.06-.89.92-.56.94-.73,0-.22-.21-.65-.63-1-.56-1.38.72-.58,1.18-.76c.46-.18,1.35-.51,1.47-.57s.08-.1-.25-.13-1.3-.16-1.73-.04-1.17.31-1.23.41-.11.1-.05.45.38,1.98.41,2.27.09.48-.22.55c-.33.09-.67.15-1,.2-.34-.04-.67-.11-1-.2-.31-.07-.25-.26-.22-.55s.35-1.93.41-2.27,0-.34-.05-.45-.8-.29-1.23-.41-1.39,0-1.73.04-.37.08-.25.13,1,.39,1.47.57,1.11.38,1.18.76-.34.95-.56,1.38-.23.48-.21.65.77.61.94.73,1.06.62,1.06.89-.87,1.01-1.14,1.19-1.02.58-1.34.64-.81-.31-1.1-.85-.03-1.09.15-1.52-.12-.66-.27-.82l-1.51-1.65c-.26-.28-.51-.42-.51-.95s2.03-3.04,2.03-3.04c0,0,1.71.33,1.94.33s.73-.2,1.19-.35c.25-.09.5-.14.76-.16h.03Z"/>
                  <g id="Top-Head">
                    <path id="path-3-2" class="cls-3" d="M12.05,1.82l-1.58-1.82h-5.54l-1.58,1.82s-1.39-.39-2.04.27c0,0,1.85-.17,2.48.88,0,0,1.71.33,1.94.33s.73-.2,1.19-.35c.49-.21,1.05-.21,1.54,0,.46.16.96.35,1.19.35s1.94-.33,1.94-.33c.63-1.05,2.48-.88,2.48-.88-.65-.67-2.04-.27-2.04-.27"/>
                  </g>
                </g>
              </g>
            </g>
          </g>
        </g>
      </g>
    </g>
  </g>
</svg>