<?xml version="1.0" encoding="UTF-8"?>
<svg id="Capa_2" data-name="Capa 2" xmlns="http://www.w3.org/2000/svg" xmlns:xlink="http://www.w3.org/1999/xlink" viewBox="0 0 58.9 7.65">
  <defs>
    <style>
      .cls-1 {
        fill: url(#Degradado_sin_nombre_6-2);
      }

      .cls-2 {
        fill: url(#Degradado_sin_nombre_6);
      }

      .cls-3 {
        fill: #253858;
      }

      .cls-4 {
        fill: #2684ff;
      }
    </style>
    <linearGradient id="Degradado_sin_nombre_6" data-name="Degradado sin nombre 6" x1="222.5" y1="594.14" x2="220.92" y2="595.71" gradientTransform="translate(-219 -592.58)" gradientUnits="userSpaceOnUse">
      <stop offset=".18" stop-color="#0052cc"/>
      <stop offset="1" stop-color="#2684ff"/>
    </linearGradient>
    <linearGradient id="Degradado_sin_nombre_6-2" data-name="Degradado sin nombre 6" x1="222.91" y1="598.66" x2="224.49" y2="597.09" xlink:href="#Degradado_sin_nombre_6"/>
  </defs>
  <g id="Capa_1-2" data-name="Capa 1">
    <g id="Layer_2" data-name="Layer 2">
      <g id="Blue">
        <path class="cls-3" d="M11.03.91h.8v4.06c0,1.07-.47,1.82-1.57,1.82-.33,0-.65-.05-.96-.15v-.78c.26.1.54.15.82.15.67,0,.91-.4.91-.99V.91Z"/>
        <path class="cls-3" d="M13.28.6c.27-.02.51.18.54.46,0,.03,0,.05,0,.08,0,.3-.24.54-.54.54s-.54-.24-.54-.54h0c-.02-.27.18-.51.46-.54,0,0,0,0,0,0h.07ZM12.89,2.3h.76v4.44h-.76V2.3Z"/>
        <path class="cls-3" d="M14.81,2.3h.75v.78c.26-.52.71-.89,1.57-.84v.75c-.98-.1-1.57.2-1.57,1.14v2.62h-.75V2.3Z"/>
        <path class="cls-3" d="M20.7,5.94c-.27.57-.87.93-1.5.89-1.18,0-1.78-1-1.78-2.31s.62-2.31,1.87-2.31c.61-.03,1.17.31,1.41.87v-.78h.76v4.44h-.76v-.8ZM19.4,6.12c.68,0,1.3-.44,1.3-1.43v-.36c0-.99-.56-1.43-1.21-1.43-.86,0-1.31.57-1.31,1.61s.43,1.61,1.22,1.61h0Z"/>
        <path class="cls-3" d="M25.99,6.83c-1.13,0-1.65-.22-2.1-.45v-.82c.67.32,1.4.49,2.14.49.88,0,1.21-.35,1.21-.86s-.32-.79-1.43-1.06c-1.31-.32-1.9-.77-1.9-1.73,0-.91.69-1.58,2.05-1.58.62-.02,1.24.13,1.78.43v.79c-.56-.31-1.18-.46-1.82-.44-.76,0-1.22.27-1.22.8,0,.48.37.71,1.4.98,1.23.31,1.93.71,1.93,1.76,0,1.02-.6,1.7-2.05,1.7Z"/>
        <path class="cls-3" d="M28.71,4.51c0-1.33.78-2.3,2.11-2.3s2.1.97,2.1,2.3-.77,2.32-2.1,2.32-2.11-.99-2.11-2.32ZM29.46,4.51c0,.84.42,1.61,1.37,1.61s1.35-.76,1.35-1.61-.41-1.58-1.35-1.58-1.36.74-1.36,1.58h0Z"/>
        <path class="cls-3" d="M34.87,2.3h1.15v.71h-1.15v3.73h-.75v-3.74h-.71v-.71h.71v-.48c0-.82.46-1.38,1.41-1.38.17,0,.35.02.51.07v.71c-.16-.03-.32-.05-.48-.04-.47,0-.71.27-.71.67v.46Z"/>
        <path class="cls-3" d="M38.6,5.99c.16,0,.32-.03.48-.06v.74c-.17.05-.34.07-.51.07-.95,0-1.41-.56-1.41-1.38v-2.35h-.71v-.71h.71v-.95h.75v.94h1.18v.71h-1.18v2.33c0,.39.23.66.7.66Z"/>
        <path class="cls-3" d="M39.29,2.3h.84l1.27,3.77,1.3-3.76h.73l1.3,3.76,1.28-3.76h.84l-1.63,4.44h-.98l-.76-2.14-.4-1.37-.4,1.37-.77,2.14h-.97l-1.63-4.44Z"/>
        <path class="cls-3" d="M50.34,5.94c-.27.57-.87.93-1.5.89-1.18,0-1.78-1-1.78-2.31s.62-2.31,1.87-2.31c.61-.03,1.17.31,1.41.87v-.78h.76v4.44h-.76v-.8ZM49.05,6.12c.68,0,1.3-.44,1.3-1.43v-.36c0-.99-.56-1.43-1.21-1.43-.86,0-1.3.57-1.3,1.61s.43,1.61,1.22,1.61h0Z"/>
        <path class="cls-3" d="M52.26,2.3h.74v.78c.26-.52.71-.89,1.57-.84v.75c-.98-.1-1.57.2-1.57,1.14v2.62h-.75V2.3Z"/>
        <path class="cls-3" d="M57.27,6.83c-1.66,0-2.39-.96-2.39-2.32s.74-2.29,2.1-2.29,1.92.94,1.92,2.29v.35h-3.24c.11.75.6,1.25,1.64,1.25.46,0,.92-.08,1.35-.24v.71c-.43.19-.9.27-1.37.25ZM55.65,4.21h2.48c-.04-.82-.42-1.3-1.18-1.3-.81,0-1.22.52-1.29,1.29h0Z"/>
        <path class="cls-4" d="M7.3,3.61L4.01.32l-.32-.32h0L1.22,2.48h0L.09,3.61c-.12.12-.12.31,0,.43l2.26,2.26,1.35,1.35,2.48-2.48.04-.04,1.09-1.09c.12-.12.12-.31,0-.43ZM3.7,4.95l-1.13-1.13,1.13-1.13,1.12,1.13-1.12,1.13Z"/>
        <path class="cls-2" d="M3.7,2.69C2.96,1.95,2.96.76,3.7.02L1.22,2.49l1.35,1.35,1.13-1.14Z"/>
        <path class="cls-1" d="M4.83,3.82l-1.13,1.13c.74.74.74,1.95,0,2.69,0,0,0,0,0,0h0l2.48-2.48-1.35-1.35Z"/>
      </g>
    </g>
  </g>
</svg>