<?xml version="1.0" encoding="UTF-8"?>
<svg id="Capa_2" data-name="Capa 2" xmlns="http://www.w3.org/2000/svg" viewBox="0 0 58.9 57.42">
  <defs>
    <style>
      .cls-1 {
        fill: #99f;
      }

      .cls-2 {
        fill: #00005b;
      }
    </style>
  </defs>
  <g id="Capa_1-2" data-name="Capa 1">
    <g id="Layer_2" data-name="Layer 2">
      <rect class="cls-2" width="58.9" height="57.42" rx="10.43" ry="10.43"/>
      <g id="Outlined_Mnemonics_Logos" data-name="Outlined Mnemonics Logos">
        <g id="Ae">
          <path class="cls-1" d="M23.66,34.36h-9.13l-1.86,5.78c-.05.22-.25.37-.47.36h-4.62c-.26,0-.36-.14-.28-.43l7.91-22.66c.08-.25.16-.47.25-.77.1-.53.16-1.06.16-1.6-.02-.13.07-.26.21-.28.02,0,.05,0,.07,0h6.28c.18,0,.29.07.32.2l8.97,25.15c.08.26,0,.4-.25.4h-5.15c-.18.02-.35-.1-.4-.28l-2.01-5.86ZM15.95,29.48h6.24c-.16-.53-.35-1.12-.55-1.78-.2-.66-.43-1.36-.67-2.11l-.71-2.25c-.24-.75-.45-1.48-.65-2.17s-.38-1.34-.53-1.92h-.04c-.22,1.07-.5,2.12-.83,3.16-.37,1.19-.75,2.4-1.13,3.63-.38,1.24-.76,2.38-1.13,3.44Z"/>
          <path class="cls-1" d="M45.98,32.11h-7.78c.1.77.35,1.51.75,2.18.44.66,1.07,1.17,1.8,1.47.99.43,2.06.64,3.14.62.86-.02,1.71-.11,2.55-.28.75-.1,1.49-.29,2.19-.57.13-.11.2-.04.2.2v3.75c0,.1-.01.2-.06.3-.05.07-.11.13-.18.18-.78.35-1.61.6-2.45.74-1.14.22-2.31.32-3.47.3-1.87,0-3.44-.29-4.7-.87-1.19-.53-2.25-1.32-3.08-2.33-.78-.95-1.35-2.04-1.7-3.22-.34-1.16-.51-2.37-.51-3.58,0-1.32.2-2.64.61-3.89.39-1.23,1.02-2.37,1.84-3.36.81-.98,1.82-1.78,2.96-2.33,1.16-.57,2.53-.77,4.11-.77,1.31-.03,2.61.22,3.81.75,1.01.43,1.9,1.11,2.59,1.96.65.83,1.15,1.78,1.47,2.79.31.97.47,1.98.47,3,0,.58-.02,1.11-.06,1.58-.04.47-.07.82-.1,1.03-.02.18-.17.32-.36.32-.16,0-.43.02-.81.06-.38.04-.85.07-1.42.08-.58,0-1.17-.1-1.81-.1ZM38.2,28.51h5.18c.63,0,1.1,0,1.4-.02.2-.02.4-.08.57-.19v-.25c0-.31-.06-.61-.16-.91-.44-1.38-1.74-2.3-3.19-2.25-1.36-.09-2.65.64-3.27,1.86-.27.55-.45,1.15-.53,1.76h0Z"/>
        </g>
      </g>
    </g>
  </g>
</svg>