<?xml version="1.0" encoding="UTF-8"?>
<svg id="Capa_2" data-name="Capa 2" xmlns="http://www.w3.org/2000/svg" viewBox="0 0 64 15.45">
  <defs>
    <style>
      .cls-1 {
        fill: #0ae8f0;
      }

      .cls-2 {
        fill: #006bff;
      }
    </style>
  </defs>
  <g id="Capa_1-2" data-name="Capa 1">
    <g id="Layer_2" data-name="Layer 2">
      <g id="Layer_1-2" data-name="Layer 1-2">
        <g id="Wordmark">
          <path class="cls-2" d="M37.99,6.1c.99,0,1.93.61,2.13,1.92h-4.42c.18-1.15,1.05-1.92,2.29-1.92M39.98,9.96c-.34.53-.99.93-1.88.93-1.23,0-2.17-.67-2.4-1.87h5.55c.03-.17.04-.34.04-.52,0-1.85-1.3-3.49-3.3-3.49s-3.47,1.52-3.47,3.48,1.42,3.48,3.55,3.48c1.32,0,2.33-.6,2.91-1.5l-1-.52h0Z"/>
          <rect class="cls-2" x="32.83" y="2.14" width="1.15" height="9.66"/>
          <path class="cls-2" d="M47.69,7.74v4.06h-1.15v-4c0-1.09-.62-1.69-1.64-1.69s-1.92.62-1.92,2.18v3.51h-1.15v-6.62h1.15v.95c.49-.78,1.22-1.12,2.15-1.12,1.55,0,2.57,1.03,2.57,2.73"/>
          <path class="cls-2" d="M54.04,8.49c0-1.35-1.02-2.37-2.36-2.37s-2.34,1.02-2.34,2.37,1.02,2.37,2.34,2.37,2.36-1.02,2.36-2.37M55.19,2.14v9.66h-1.15v-1.14c-.53.81-1.38,1.31-2.5,1.31-1.84,0-3.35-1.52-3.35-3.48s1.51-3.48,3.35-3.48c1.12,0,1.97.5,2.5,1.31V2.14h1.15Z"/>
          <rect class="cls-2" x="56.12" y="2.14" width="1.15" height="9.66"/>
          <path class="cls-2" d="M30.77,8.49c0-1.35-1.02-2.37-2.36-2.37s-2.34,1.02-2.34,2.37,1.02,2.37,2.34,2.37,2.36-1.02,2.36-2.37M31.93,5.18v6.62h-1.15v-1.14c-.53.81-1.38,1.31-2.5,1.31-1.84,0-3.35-1.52-3.35-3.48s1.51-3.48,3.35-3.48c1.12,0,1.97.5,2.5,1.31v-1.14h1.15Z"/>
          <path class="cls-2" d="M23.22,10.53c-1.86.69-3.92-.26-4.6-2.12-.69-1.86.26-3.92,2.12-4.6,1.19-.44,2.53-.21,3.52.59.2.17.39.36.55.56l1-.73c-1.62-2.12-4.65-2.52-6.76-.9-2.12,1.62-2.52,4.65-.9,6.76s4.65,2.52,6.76.9c0,0,.01-.01.02-.02l-.66-1.05c-.31.26-.66.46-1.04.6"/>
          <path class="cls-2" d="M62.83,5.18v3.76c0,1.21-.71,1.98-1.78,1.98s-1.86-.77-1.86-1.98v-3.76h-1.17v3.64c0,1.91,1.19,3.15,3.02,3.15,1.59,0,1.83-1,1.83-1.03v1.35c0,1.34-.58,2.09-1.8,2.09-.9,0-1.66-.66-1.78-1.55l-1.04.36c.31,1.31,1.48,2.24,2.82,2.24,1.88,0,2.91-1.24,2.91-3.15v-7.11h-1.17,0Z"/>
        </g>
        <g id="Brand_mark" data-name="Brand mark">
          <path class="cls-2" d="M9.37,9.04c-.44.39-1,.88-2,.88h-.6c-.73,0-1.38-.26-1.86-.74-.46-.47-.71-1.11-.71-1.8v-.82c0-.69.25-1.33.71-1.8.47-.48,1.13-.74,1.86-.74h.6c1,0,1.55.49,2,.88.46.4.86.76,1.91.76.16,0,.32-.01.48-.04h0c-.06-.17-.14-.32-.22-.47l-.71-1.22c-.65-1.12-1.85-1.81-3.14-1.81h-1.41c-1.3,0-2.49.69-3.14,1.81l-.71,1.22c-.65,1.12-.65,2.51,0,3.63l.71,1.22c.65,1.12,1.85,1.81,3.14,1.81h1.41c1.3,0,2.49-.69,3.14-1.81l.71-1.22c.08-.15.16-.3.22-.46h0c-.16-.04-.32-.05-.48-.05-1.06,0-1.45.35-1.91.76"/>
          <path class="cls-2" d="M7.38,4.76h-.6c-1.1,0-1.83.79-1.83,1.8v.82c0,1.01.73,1.8,1.83,1.8h.6c1.61,0,1.48-1.64,3.91-1.64.23,0,.46.02.69.06.07-.42.07-.84,0-1.26-.23.04-.46.06-.69.06-2.43,0-2.3-1.64-3.91-1.64"/>
          <path class="cls-2" d="M13.37,8.2c-.41-.3-.89-.51-1.39-.6h0c-.04.25-.11.49-.2.72.42.06.81.23,1.15.47,0,0,0,0,0,.01-1.01,3.28-4.49,5.12-7.77,4.11C1.87,11.9.03,8.42,1.04,5.14,2.05,1.85,5.53.02,8.82,1.03c1.96.61,3.5,2.14,4.11,4.11,0,0,0,0,0,.01-.34.25-.74.41-1.15.47.09.23.16.47.2.71h0c.5-.08.98-.28,1.39-.59.4-.29.32-.63.26-.82C12.49,1.24,8.59-.82,4.92.31,1.24,1.45-.82,5.35.31,9.02c1.13,3.68,5.03,5.74,8.71,4.61,2.2-.68,3.93-2.4,4.61-4.61.06-.2.14-.53-.26-.82"/>
          <path class="cls-1" d="M11.77,5.62c-.16.03-.32.04-.48.04-1.06,0-1.45-.35-1.91-.76-.44-.39-.99-.88-2-.88h-.6c-.73,0-1.38.26-1.86.74-.46.47-.71,1.11-.71,1.8v.82c0,.69.25,1.33.71,1.8.47.48,1.13.74,1.86.74h.6c1,0,1.55-.49,2-.88.46-.4.86-.76,1.91-.76.16,0,.32.01.48.04.09-.23.16-.46.2-.71h0c-.23-.05-.46-.07-.69-.07-2.43,0-2.3,1.64-3.91,1.64h-.6c-1.1,0-1.83-.79-1.83-1.8v-.82c0-1.01.73-1.8,1.83-1.8h.6c1.61,0,1.48,1.64,3.91,1.64.23,0,.46-.02.69-.06h0c-.04-.25-.11-.49-.2-.72"/>
          <path class="cls-1" d="M11.77,5.62c-.16.03-.32.04-.48.04-1.06,0-1.45-.35-1.91-.76-.44-.39-.99-.88-2-.88h-.6c-.73,0-1.38.26-1.86.74-.46.47-.71,1.11-.71,1.8v.82c0,.69.25,1.33.71,1.8.47.48,1.13.74,1.86.74h.6c1,0,1.55-.49,2-.88.46-.4.86-.76,1.91-.76.16,0,.32.01.48.04.09-.23.16-.46.2-.71h0c-.23-.05-.46-.07-.69-.07-2.43,0-2.3,1.64-3.91,1.64h-.6c-1.1,0-1.83-.79-1.83-1.8v-.82c0-1.01.73-1.8,1.83-1.8h.6c1.61,0,1.48,1.64,3.91,1.64.23,0,.46-.02.69-.06h0c-.04-.25-.11-.49-.2-.72"/>
        </g>
      </g>
    </g>
  </g>
</svg>