<?xml version="1.0" encoding="UTF-8"?>
<svg id="Capa_2" data-name="Capa 2" xmlns="http://www.w3.org/2000/svg" viewBox="0 0 58.9 11.12">
  <g id="Capa_1-2" data-name="Capa 1">
    <g>
      <path d="M1.23,0h8.95c.78.06,1.37.72,1.34,1.5.86-.49,1.76-.93,2.63-1.4v2.2c-2.05,1.1-4.11,2.19-6.17,3.25,2.04,1.11,4.13,2.13,6.17,3.26-.01.74,0,1.48,0,2.22-.87-.47-1.76-.92-2.63-1.41.04.78-.55,1.45-1.33,1.51H1.35C.67,11.08.03,10.6,0,9.88v-2.39c1.24-.62,2.48-1.28,3.72-1.94-1.25-.6-2.47-1.29-3.72-1.9V1.25C.06.59.58.07,1.23,0ZM1.23,2.07c1.54.79,3.07,1.59,4.61,2.39,1.5-.81,3.02-1.57,4.52-2.39-3.04,0-6.08,0-9.13,0h0ZM1.25,9.05c3.05.02,6.11,0,9.16.01-1.52-.83-3.06-1.58-4.57-2.41-1.52.81-3.05,1.6-4.58,2.4h0Z"/>
      <path d="M20.24.98c1.49-.52,3.14-.41,4.55.3v1.7c-1.01-.54-2.2-.88-3.35-.64-.98.19-1.88.97-2.01,1.99-.18.98.29,2.09,1.2,2.54,1.31.72,2.91.34,4.16-.33v1.73c-1.29.58-2.77.8-4.15.41-1.15-.28-2.11-1.05-2.65-2.1-.51-1.1-.53-2.36-.07-3.47.45-1,1.29-1.77,2.32-2.14Z"/>
      <path d="M41.44,1.94c1.59-1.55,4.15-1.59,6.06-.66v1.74c-1.16-.68-2.64-1.01-3.91-.47-.91.37-1.5,1.26-1.47,2.24-.05,1.1.81,2.08,1.85,2.35,1.2.33,2.48,0,3.54-.59v1.71c-1.49.73-3.31.87-4.83.18-1.14-.49-1.97-1.5-2.24-2.72-.33-1.35.05-2.77,1.01-3.78Z"/>
      <path d="M56.77,2.08v1.1h2.12v1.24c-.71.01-1.42,0-2.13,0,.03.84-.06,1.69.05,2.52.32.83,1.41.68,2.08.41v1.28c-.82.3-1.72.3-2.54,0-.69-.29-1.14-.97-1.13-1.72V2.85c.53-.23,1.05-.49,1.55-.77Z"/>
      <path d="M26.94,3.47c1.07-.68,2.69-.56,3.48.5v-.63h1.52v5.42h-1.52v-.75c-1.05,1.33-3.44,1.12-4.29-.34-.79-1.33-.55-3.33.82-4.2ZM28.35,4.43c-.9.29-1.28,1.4-.92,2.23.38.99,1.85,1.24,2.57.49.62-.56.62-1.6.14-2.24-.44-.51-1.15-.7-1.79-.48h0Z"/>
      <path d="M34.66,4c.89-1.13,2.73-1.26,3.79-.3s1.22,2.69.52,3.93c-.83,1.49-3.21,1.72-4.32.41.02,1.03,0,2.05,0,3.07h-1.55V3.34h1.54c.01.22.01.44.01.66ZM35.73,4.41c-1.24.28-1.55,2.15-.53,2.87.91.75,2.53.12,2.55-1.11.18-1.11-.95-2.13-2.02-1.76h0Z"/>
      <path d="M48.46,3.19h1.55v3.14c0,.44.17.95.62,1.12.73.37,1.88.07,1.97-.85.04-1.14,0-2.27.01-3.41h1.54v3.61c-.01.77-.47,1.46-1.17,1.76-.95.39-2.01.43-2.99.13-.78-.22-1.49-.89-1.52-1.74-.03-1.24,0-2.5-.01-3.75Z"/>
    </g>
  </g>
</svg>