<?xml version="1.0" encoding="UTF-8"?>
<svg id="Capa_2" data-name="Capa 2" xmlns="http://www.w3.org/2000/svg" viewBox="0 0 58.9 57.42">
  <defs>
    <style>
      .cls-1 {
        fill: #99f;
      }

      .cls-2 {
        fill: #00005b;
      }
    </style>
  </defs>
  <g id="Capa_1-2" data-name="Capa 1">
    <g>
      <rect class="cls-2" width="58.9" height="57.42" rx="6.95" ry="6.95"/>
      <path class="cls-1" d="M14,40.27V15.02c0-.18.08-.28.24-.28.42,0,.8,0,1.38-.02l1.86-.04,2.13-.04c.75-.01,1.5-.02,2.23-.02,1.72-.05,3.44.2,5.07.74,1.23.42,2.36,1.11,3.3,2.01.79.79,1.41,1.74,1.8,2.79.37,1.02.56,2.1.55,3.18.08,1.85-.44,3.67-1.46,5.21-.98,1.37-2.36,2.42-3.95,2.98-1.78.6-3.65.88-5.53.83-.58,0-.99,0-1.24-.02-.24,0-.59-.02-1.07-.02v7.88c.03.17-.09.33-.26.36,0,0,0,0,0,0h0s-.06,0-.09,0h-4.69c-.19,0-.27-.11-.27-.32ZM19.34,19.47v8.23c.34.02.66.04.95.04h1.31c.96,0,1.91-.15,2.82-.45.78-.23,1.48-.68,2.01-1.3.55-.72.83-1.62.77-2.53.02-.76-.18-1.52-.57-2.17-.41-.63-1.01-1.12-1.72-1.4-.92-.36-1.9-.52-2.88-.49-.63,0-1.19,0-1.68.02-.49,0-.83.03-1.01.06h0Z"/>
      <path class="cls-1" d="M35.97,20.9h4.31c.24,0,.45.16.52.39.07.19.12.39.15.59.06.25.1.51.12.77.03.28.04.57.04.89.74-.86,1.63-1.58,2.63-2.11,1.14-.63,2.42-.96,3.72-.96.17-.03.33.09.36.26,0,0,0,0,0,0,0,.03,0,.06,0,.09v4.79c0,.18-.13.28-.4.28-.89-.03-1.79.05-2.66.25-.71.14-1.4.36-2.05.65-.48.22-.91.52-1.26.91v12.52c0,.24-.11.36-.31.36h-4.85c-.19.03-.37-.11-.39-.3,0,0,0,0,0-.01h0s0-.07,0-.1v-13.57c0-.58,0-1.19-.02-1.84s-.03-1.29-.06-1.92c0-.56-.04-1.12-.11-1.67-.03-.12.04-.24.16-.28,0,0,0,0,0,0h0s.08,0,.11,0h0Z"/>
    </g>
  </g>
</svg>