<?xml version="1.0" encoding="UTF-8"?>
<svg id="Capa_2" data-name="Capa 2" xmlns="http://www.w3.org/2000/svg" viewBox="0 0 58.9 58.92">
  <defs>
    <style>
      .cls-1 {
        fill: #fff;
      }

      .cls-2 {
        fill: #74aa9c;
      }
    </style>
  </defs>
  <g id="Capa_1-2" data-name="Capa 1">
    <g>
      <path class="cls-2" d="M0,14.15C0,6.33,6.34,0,14.15,0h30.6c7.81,0,14.15,6.33,14.15,14.15v44.77H14.15c-7.81,0-14.15-6.33-14.15-14.15V14.15Z"/>
      <path class="cls-1" d="M27.11,7.3c-4.85,0-9.16,3.11-10.66,7.73-6.04,1.28-9.9,7.22-8.62,13.26.41,1.91,1.31,3.69,2.61,5.15-1.01,3.01-.66,6.31.95,9.04,2.43,4.21,7.29,6.38,12.04,5.37,2.11,2.38,5.14,3.73,8.32,3.72,4.85,0,9.14-3.12,10.66-7.73,6.05-1.28,9.91-7.23,8.63-13.27-.41-1.92-1.31-3.7-2.62-5.15h0c1.01-3.01.66-6.31-.95-9.06-2.43-4.2-7.28-6.36-12.03-5.36-2.12-2.37-5.15-3.72-8.33-3.71h0ZM27.11,10.18h0c1.95,0,3.83.68,5.33,1.92l-.27.15-8.83,5.08c-.45.26-.73.74-.72,1.26v11.92l-3.8-2.19v-9.83c0-4.59,3.72-8.31,8.31-8.31h-.01ZM37.75,13.66c4.59-.01,8.32,3.7,8.33,8.29,0,.48-.04.95-.12,1.42-.06-.05-.18-.11-.25-.15l-8.83-5.1c-.45-.25-1-.25-1.46,0l-10.35,5.96v-4.38l8.54-4.93c1.26-.72,2.69-1.11,4.14-1.11ZM15.9,18.19v10.48c0,.52.27,1,.72,1.26l10.33,5.96-3.81,2.18-8.53-4.92c-3.97-2.3-5.32-7.38-3.02-11.35.98-1.68,2.51-2.97,4.34-3.63l-.03.03ZM35.69,20.79l8.55,4.92c3.96,2.28,5.33,7.34,3.05,11.31,0,.01-.01.02-.02.03h0c-.97,1.68-2.5,2.96-4.32,3.63v-10.47c0-.52-.27-1-.72-1.26l-10.35-5.96,3.8-2.18h.01ZM29.45,24.4l4.36,2.52v5.02l-4.36,2.52-4.36-2.52v-5.02l4.36-2.52ZM36.3,28.37l3.8,2.19v9.85c0,4.59-3.72,8.31-8.31,8.31h0c-1.94,0-3.81-.68-5.3-1.92l.27-.15,8.83-5.08c.46-.25.73-.74.72-1.26v-11.92l-.02-.02ZM33.81,34.82v4.38l-8.55,4.92c-3.97,2.29-9.05.93-11.35-3.03h0c-.97-1.67-1.33-3.64-.99-5.55.06.05.18.11.25.15l8.83,5.1c.45.25,1,.25,1.46,0l10.33-5.96h.02Z"/>
    </g>
  </g>
</svg>