<?xml version="1.0" encoding="UTF-8"?>
<svg id="Capa_2" data-name="Capa 2" xmlns="http://www.w3.org/2000/svg" viewBox="0 0 58.9 47.39">
  <defs>
    <style>
      .cls-1 {
        fill: #4285f4;
      }

      .cls-2 {
        fill: #34a853;
      }

      .cls-3 {
        fill: #fbbc04;
      }

      .cls-4 {
        fill: #ea4335;
      }
    </style>
  </defs>
  <g id="Capa_1-2" data-name="Capa 1">
    <g>
      <path class="cls-4" d="M37.5,13.09l1.89.04,5.15-5.11.25-2.17C35.29-2.62,20.73-1.79,12.27,7.71c-2.38,2.67-4.11,5.87-5.04,9.33.53-.39,1.74-.1,1.74-.1l10.25-1.69s.53-.87.79-.81c4.56-5.01,12.22-5.59,17.48-1.33v-.02Z"/>
      <path class="cls-1" d="M51.72,17.05c-1.18-4.34-3.6-8.23-6.96-11.21l-7.23,7.23c3.02,2.43,4.78,6.09,4.78,9.97v1.32c3.54-.12,6.5,2.66,6.62,6.19.12,3.54-2.66,6.5-6.19,6.62-.01,0-.02,0-.03,0h-13.23l-1.28,1.29v7.65l1.28,1.28h12.81c9.19-.01,16.63-7.48,16.62-16.67,0-5.46-2.69-10.56-7.18-13.67Z"/>
      <path class="cls-2" d="M16.64,47.39h12.82v-10.25h-12.82c-.91,0-1.81-.21-2.64-.6l-1.84.57-5.13,5.15-.45,1.74c2.89,2.21,6.43,3.4,10.06,3.39Z"/>
      <path class="cls-3" d="M16.64,14.09C7.45,14.09,0,21.54,0,30.73c0,5.21,2.44,10.12,6.59,13.26l7.43-7.43c-3.24-1.43-4.7-5.2-3.28-8.44s5.2-4.7,8.44-3.28c1.46.64,2.63,1.81,3.28,3.28l7.45-7.46c-3.15-4.15-8.06-6.59-13.26-6.58Z"/>
    </g>
  </g>
</svg>