<?xml version="1.0" encoding="UTF-8"?>
<svg id="Capa_2" data-name="Capa 2" xmlns="http://www.w3.org/2000/svg" xmlns:xlink="http://www.w3.org/1999/xlink" viewBox="0 0 58.9 12.02">
  <defs>
    <style>
      .cls-1 {
        fill: #293856;
      }

      .cls-2 {
        fill: url(#Degradado_sin_nombre_4);
      }
    </style>
    <linearGradient id="Degradado_sin_nombre_4" data-name="Degradado sin nombre 4" x1="-338.59" y1="-12.93" x2="-338.59" y2="-13.41" gradientTransform="translate(8541.82 337.96) scale(25.21 25.19)" gradientUnits="userSpaceOnUse">
      <stop offset="0" stop-color="#0052cc"/>
      <stop offset="1" stop-color="#2684ff"/>
    </linearGradient>
  </defs>
  <g id="Capa_1-2" data-name="Capa 1">
    <g>
      <path class="cls-2" d="M10.41,0H1.4C.63,0,0,.63,0,1.4v9c0,.78.62,1.41,1.4,1.41,0,0,0,0,0,0h9.01c.78,0,1.4-.63,1.4-1.41,0,0,0,0,0,0V1.4c0-.77-.63-1.4-1.4-1.4ZM5.1,8.51c0,.26-.21.47-.47.47,0,0,0,0,0,0h-1.97c-.26,0-.47-.21-.47-.47V2.65c0-.26.21-.47.47-.47h1.97c.26,0,.47.21.47.47h0v5.86ZM9.64,5.82c0,.26-.21.47-.47.47,0,0,0,0,0,0h-1.97c-.26,0-.47-.21-.47-.47h0v-3.18c0-.26.21-.47.47-.47h1.97c.26,0,.47.21.47.47v3.18Z"/>
      <path class="cls-1" d="M24.48.86v2.28h-2.7v8.65h-2.61V3.15h-2.7V.86h8.02Z"/>
      <path class="cls-1" d="M27.8,11.81h-2.41V3.29h2.41v1.63c.46-1.15,1.19-1.83,2.5-1.75v2.53c-1.7-.13-2.5.3-2.5,1.65v4.45Z"/>
      <path class="cls-1" d="M43.46,11.88c-1.58,0-2.57-.76-2.57-2.55V0h2.43v8.99c0,.52.34.7.76.7.12,0,.24,0,.36-.02v2.09c-.32.08-.65.12-.98.12Z"/>
      <path class="cls-1" d="M48.53,11.88c-1.58,0-2.58-.76-2.58-2.55V0h2.43v8.99c0,.52.34.7.77.7.12,0,.24,0,.36-.02v2.09c-.32.09-.65.13-.98.12Z"/>
      <path class="cls-1" d="M50.68,7.55c0-2.63,1.51-4.43,4.12-4.43s4.09,1.79,4.09,4.43-1.49,4.47-4.09,4.47-4.12-1.86-4.12-4.47ZM53.05,7.55c0,1.28.54,2.3,1.76,2.3s1.73-1.02,1.73-2.3-.52-2.27-1.73-2.27-1.76.99-1.76,2.27Z"/>
      <path class="cls-1" d="M33.56,8.32c.68.07,1.35.11,2.03.12,1.85,0,3.41-.49,3.41-2.28s-1.6-3.04-3.53-3.04c-2.6,0-4.26,1.88-4.26,4.51s1.43,4.35,4.68,4.35c.96,0,1.92-.16,2.82-.5v-2.04c-.88.32-1.8.5-2.73.53-1.29,0-2.19-.42-2.41-1.65ZM35.41,4.97c.63-.05,1.18.43,1.23,1.07,0,.01,0,.02,0,.03,0,.82-.86,1.07-1.85,1.07-.42,0-.84-.04-1.26-.1.03-.4.14-.78.33-1.14.31-.57.9-.92,1.55-.93h0Z"/>
    </g>
  </g>
</svg>