<?xml version="1.0" encoding="UTF-8"?>
<svg id="Capa_2" data-name="Capa 2" xmlns="http://www.w3.org/2000/svg" viewBox="0 0 56.39 58.9">
  <defs>
    <style>
      .cls-1 {
        fill-rule: evenodd;
      }

      .cls-2 {
        fill: #fff;
      }
    </style>
  </defs>
  <g id="Capa_1-2" data-name="Capa 1">
    <g>
      <path class="cls-2" d="M3.55,2.54L36.14.13c4-.34,5.03-.11,7.55,1.72l10.4,7.33c1.71,1.26,2.29,1.6,2.29,2.98v40.19c0,2.52-.92,4.01-4.12,4.24l-37.85,2.29c-2.4.11-3.55-.23-4.8-1.83l-7.66-9.96c-1.37-1.83-1.94-3.21-1.94-4.8V6.55c0-2.06.92-3.78,3.54-4.01h0Z"/>
      <path class="cls-1" d="M46.77,19.71c.23,1.03,0,2.06-1.03,2.18l-1.71.34v25.19c-1.49.8-2.86,1.27-4,1.27-1.83,0-2.29-.56-3.66-2.29l-11.2-17.65v17.06l3.53.8s0,2.06-2.86,2.06l-7.88.46c-.23-.46,0-1.6.8-1.83l2.06-.56v-22.56l-2.86-.23c-.28-1.15.43-2.31,1.58-2.58.12-.03.24-.05.36-.05l8.47-.56,11.66,17.86v-15.8l-2.97-.34c-.23-1.26.69-2.18,1.83-2.29l7.88-.46ZM11.67,52V17.88c0-1.49.46-2.18,1.83-2.29l37.16-2.18c1.26-.11,1.83.69,1.83,2.18v33.9c0,1.49-.23,2.75-2.29,2.86l-35.56,2.06c-2.06.11-2.97-.56-2.97-2.4h0ZM15.27,11.5c-3.09.21-3.79.25-5.55-1.17l-4.46-3.55c-.45-.46-.23-1.03.92-1.15l31.33-2.29c2.63-.23,4,.69,5.03,1.49l5.37,3.89c.23.12.8.8.11.8l-32.35,1.95-.39.03ZM36.14.13L3.55,2.54C.92,2.77,0,4.49,0,6.55v35.72c0,1.6.56,2.97,1.94,4.8l7.66,9.96c1.26,1.6,2.4,1.95,4.8,1.83l37.85-2.29c3.2-.23,4.12-1.72,4.12-4.24V12.16c0-1.3-.51-1.68-2.03-2.79l-.26-.19-10.4-7.33C41.18.02,40.15-.21,36.15.13h0Z"/>
    </g>
  </g>
</svg>