<?xml version="1.0" encoding="UTF-8"?>
<svg id="Capa_2" data-name="Capa 2" xmlns="http://www.w3.org/2000/svg" xmlns:xlink="http://www.w3.org/1999/xlink" viewBox="0 0 58.9 24.62">
  <defs>
    <style>
      .cls-1 {
        fill: none;
      }

      .cls-2 {
        mask: url(#mask);
      }

      .cls-3 {
        fill: #fff;
      }

      .cls-4 {
        fill: url(#Degradado_sin_nombre_30);
      }

      .cls-5 {
        clip-path: url(#clippath);
      }
    </style>
    <clipPath id="clippath">
      <rect class="cls-1" width="58.9" height="24.62"/>
    </clipPath>
    <mask id="mask" x="-15.28" y="-59.3" width="112.98" height="93.05" maskUnits="userSpaceOnUse">
      <g id="mask-2" data-name="mask">
        <g id="mask0_958_15881" data-name="mask0 958 15881">
          <path class="cls-3" d="M38,8.14c.18.43.28.89.27,1.36,0-.47.09-.93.27-1.36.18-.41.43-.79.75-1.1.32-.32.69-.57,1.1-.74.43-.18.89-.28,1.36-.27-.47,0-.93-.09-1.36-.27-.83-.36-1.49-1.02-1.85-1.85-.18-.43-.27-.89-.27-1.36,0,.47-.09.93-.27,1.36-.17.41-.42.79-.74,1.1-.32.32-.69.57-1.1.75-.43.18-.89.27-1.36.27.47,0,.93.09,1.36.27.83.35,1.5,1.01,1.84,1.84ZM9.76,19.26c.72.29,1.49.44,2.27.44.76,0,1.51-.12,2.22-.39.65-.25,1.24-.63,1.74-1.11.49-.48.88-1.06,1.14-1.71.28-.7.42-1.44.41-2.19v-.02c0-.14,0-.27-.03-.41-.01-.12-.03-.26-.05-.39h-5.39v1.3h4.07c-.03.57-.18,1.13-.45,1.63-.23.43-.54.81-.92,1.11-.38.3-.81.52-1.27.66-.48.14-.97.21-1.47.2-.56,0-1.12-.11-1.64-.31-.53-.21-1.01-.51-1.42-.91-.41-.41-.74-.89-.97-1.43-.25-.6-.37-1.24-.36-1.89-.01-.64.11-1.28.34-1.88.44-1.07,1.3-1.91,2.38-2.33.53-.21,1.1-.31,1.67-.31.41,0,.83.06,1.22.17.37.1.73.25,1.06.45.32.19.62.43.86.72l.97-1c-.49-.55-1.11-.97-1.8-1.24-.74-.29-1.52-.44-2.32-.43-3.25.03-5.86,2.68-5.83,5.93.01,1.54.63,3.01,1.71,4.1.53.53,1.16.95,1.85,1.23h0ZM20.34,19.15c.62.37,1.34.56,2.07.54.88,0,1.61-.2,2.21-.59.57-.38,1.04-.89,1.36-1.5l-1.18-.56c-.22.4-.53.74-.91,1-.41.28-.91.43-1.41.41-.44,0-.88-.11-1.27-.33-.42-.23-.76-.57-1-.99-.24-.43-.37-.9-.39-1.39h6.28c.01-.07.02-.14.02-.2.01-.08.02-.16.02-.23.01-.73-.15-1.45-.47-2.11-.29-.6-.74-1.1-1.31-1.44-.62-.37-1.33-.55-2.05-.53-.73-.02-1.44.19-2.05.59-.58.39-1.05.92-1.36,1.55-.32.66-.48,1.38-.47,2.11-.01.75.16,1.5.5,2.17.33.62.82,1.15,1.42,1.51h0ZM19.9,14.6c.05-.23.12-.45.21-.66.18-.43.48-.8.86-1.06.39-.27.87-.42,1.35-.41.37-.01.75.06,1.09.22.53.24.94.69,1.13,1.24.08.22.12.45.14.68h-4.76ZM27.33,11.48v7.97h1.41v-4.44c0-.43.09-.85.27-1.24.16-.37.42-.68.74-.92.3-.24.68-.36,1.06-.36.55,0,.98.16,1.28.48s.46.86.47,1.61v4.86h1.39v-4.48c0-.42.09-.84.27-1.22.16-.37.41-.68.74-.92.31-.23.68-.35,1.06-.34.56,0,1,.16,1.3.47.3.31.46.85.47,1.61v4.89h1.39v-5.11c0-.93-.23-1.68-.69-2.25s-1.16-.86-2.11-.86c-.58-.02-1.15.14-1.64.44-.45.28-.82.66-1.1,1.11-.19-.46-.51-.84-.92-1.11-.45-.3-.98-.45-1.52-.44-.34,0-.68.07-1,.2-.32.12-.61.29-.86.52-.24.2-.44.43-.59.7h-.06v-1.17h-1.36ZM40.44,11.48v7.97h1.39v-7.98h-1.39ZM40.42,9.79c.19.18.44.28.7.28.26,0,.52-.09.7-.28.18-.19.28-.44.28-.7,0-.26-.09-.52-.28-.7-.18-.2-.44-.3-.7-.3-.55,0-.99.45-.99.99,0,0,0,0,0,0,0,.26.1.51.28.7h0ZM43.13,11.48v7.97h1.41v-4.44c0-.42.09-.83.27-1.2.18-.37.44-.69.77-.94.33-.25.73-.38,1.14-.38.58,0,1.05.16,1.41.48.35.32.53.86.53,1.61v4.86h1.41v-5.11c0-.94-.25-1.69-.75-2.25-.5-.56-1.24-.85-2.21-.86-.55,0-1.09.14-1.56.42-.42.24-.77.58-1.02,1h-.06v-1.17h-1.33ZM51.25,11.48v7.97h1.39v-7.98h-1.39ZM51.23,9.79c.19.18.44.28.7.28.26,0,.52-.09.7-.28.18-.19.28-.44.28-.7,0-.26-.09-.52-.28-.7-.18-.2-.44-.3-.7-.3-.55,0-.99.45-.99.99,0,0,0,0,0,0,0,.26.1.51.28.7h0Z"/>
        </g>
      </g>
    </mask>
    <linearGradient id="Degradado_sin_nombre_30" data-name="Degradado sin nombre 30" x1="-38.82" y1="270.21" x2="17.17" y2="256.63" gradientTransform="translate(32.05 -271.34)" gradientUnits="userSpaceOnUse">
      <stop offset="0" stop-color="#439ddf"/>
      <stop offset=".52" stop-color="#4f87ed"/>
      <stop offset=".78" stop-color="#9476c5"/>
      <stop offset=".89" stop-color="#bc688e"/>
      <stop offset="1" stop-color="#d6645d"/>
    </linearGradient>
  </defs>
  <g id="Capa_1-2" data-name="Capa 1">
    <g class="cls-5">
      <g class="cls-2">
        <rect class="cls-4" x="-15.28" y="-59.3" width="112.98" height="93.05"/>
      </g>
    </g>
  </g>
</svg>