<?xml version="1.0" encoding="UTF-8"?>
<svg id="Capa_2" data-name="Capa 2" xmlns="http://www.w3.org/2000/svg" viewBox="0 0 58.9 57.42">
  <defs>
    <style>
      .cls-1 {
        fill: #49021f;
      }

      .cls-2 {
        fill: #f36;
      }
    </style>
  </defs>
  <g id="Capa_1-2" data-name="Capa 1">
    <g>
      <path class="cls-1" d="M48.47,0H10.41C4.66,0,0,4.68,0,10.43v36.56H0c0,5.77,4.67,10.43,10.43,10.43h38.05c5.76,0,10.42-4.67,10.41-10.43V10.43h0C58.89,4.66,54.22,0,48.47,0Z"/>
      <path class="cls-2" d="M21.4,15.01v25.18c0,.27-.12.39-.34.39h-4.81c-.22,0-.32-.12-.32-.39V15.01c0-.22.12-.32.34-.32h4.78c.15-.02.29.08.32.23,0,0,0,.01,0,.02.02.02.03.04.02.07Z"/>
      <path class="cls-2" d="M35.53,40.98c-1.82.03-3.62-.35-5.28-1.1-1.54-.72-2.83-1.88-3.71-3.34-.91-1.49-1.35-3.36-1.35-5.59-.02-1.82.44-3.61,1.35-5.18.93-1.6,2.27-2.91,3.89-3.8,1.72-.96,3.78-1.42,6.21-1.42.17,0,.34,0,.52.02.22.02.47.02.76.05v-7.76c0-.17.07-.27.25-.27h4.98c.12-.02.23.06.25.17v23.41c0,.44.02.93.05,1.47s.07,1,.1,1.42c.01.17-.09.33-.25.39-1.29.54-2.63.94-4,1.18-1.25.22-2.51.34-3.77.34ZM37.94,36.07v-10.79c-.22-.05-.44-.09-.66-.12-.27-.02-.54-.05-.81-.05-.97-.01-1.92.21-2.78.64-.84.42-1.56,1.04-2.08,1.82-.54.78-.81,1.84-.81,3.12-.02.86.13,1.71.43,2.52.24.65.61,1.25,1.1,1.74.47.45,1.04.79,1.67.98.66.22,1.35.32,2.04.32.37,0,.71-.02,1.03-.05.3.03.6-.01.88-.11h0Z"/>
    </g>
  </g>
</svg>