<?xml version="1.0" encoding="UTF-8"?>
<svg id="Capa_2" data-name="Capa 2" xmlns="http://www.w3.org/2000/svg" viewBox="0 0 58.9 14.82">
  <defs>
    <style>
      .cls-1 {
        fill: #2684fc;
      }

      .cls-2 {
        fill: #00ac47;
      }

      .cls-3 {
        fill: #e94235;
      }

      .cls-4 {
        fill: #c5221f;
      }

      .cls-5 {
        fill: #5f6368;
      }

      .cls-6 {
        fill: #ffba00;
      }
    </style>
  </defs>
  <g id="Capa_1-2" data-name="Capa 1">
    <g>
      <path class="cls-4" d="M0,2.02v1.8l2.06,1.99,2.43,1.38.45-3.02-.45-2.81-1.26-.94C1.9-.59,0,.36,0,2.02Z"/>
      <path class="cls-6" d="M15.27,1.35l-.45,2.85.45,2.99,2.2-1.09,2.29-2.27v-1.8c0-1.66-1.9-2.62-3.23-1.62,0,0-1.26.94-1.26.94Z"/>
      <path class="cls-1" d="M1.35,14.82h3.14v-7.63L0,3.82v9.65c0,.74.6,1.35,1.35,1.35h0Z"/>
      <path class="cls-2" d="M15.27,14.82h3.14c.74,0,1.35-.6,1.35-1.35V3.82l-4.49,3.36v7.63h0Z"/>
      <path class="cls-3" d="M9.88,5.39L4.49,1.35v5.84l5.39,4.04,5.39-4.04V1.35l-5.39,4.04Z"/>
      <path class="cls-5" d="M35.46,7.79c0,1.32-.39,2.36-1.17,3.15-.88.93-2.04,1.39-3.47,1.39s-2.53-.47-3.48-1.42-1.42-2.11-1.42-3.5.47-2.56,1.42-3.5c.95-.95,2.11-1.42,3.48-1.42.69,0,1.35.13,1.96.37s1.12.59,1.51,1.04l-.87.87c-.29-.35-.66-.62-1.13-.81-.45-.2-.95-.31-1.47-.31-1.03,0-1.9.35-2.61,1.07-.7.72-1.05,1.62-1.05,2.7s.35,1.98,1.05,2.7c.71.71,1.58,1.07,2.61,1.07.94,0,1.72-.26,2.35-.79.62-.53.98-1.25,1.08-2.17h-3.42v-1.13h4.57c.04.25.07.48.07.71ZM37.99,12.13h-1.21v-6.45h1.16v.9h.05c.19-.32.47-.58.84-.79.39-.21.77-.32,1.14-.32.47,0,.89.11,1.25.33s.62.52.79.91c.53-.83,1.28-1.24,2.23-1.24.75,0,1.32.23,1.72.68s.6,1.11.6,1.95v4.03h-1.21v-3.84c0-.6-.11-1.04-.33-1.31-.22-.27-.59-.41-1.11-.41-.47,0-.86.2-1.17.59s-.47.86-.47,1.39v3.57h-1.21v-3.84c0-.6-.11-1.04-.33-1.31-.22-.27-.59-.41-1.11-.41-.47,0-.86.2-1.17.59s-.47.86-.47,1.39v3.57h0ZM48.86,10.15c0,.32.13.58.4.79.27.21.59.32.95.32.51,0,.96-.19,1.36-.57.4-.38.6-.82.6-1.33-.38-.3-.9-.45-1.58-.45-.49,0-.9.12-1.24.35-.32.24-.48.53-.48.88h0ZM50.42,5.46c.9,0,1.6.24,2.12.72.52.47.78,1.13.78,1.96v3.98h-1.16v-.9h-.05c-.5.74-1.17,1.11-2,1.11-.71,0-1.31-.21-1.79-.63-.47-.42-.71-.95-.71-1.58s.25-1.2.75-1.59c.51-.4,1.19-.59,2.03-.59.72,0,1.31.13,1.78.4v-.28c0-.42-.17-.78-.5-1.07-.34-.3-.72-.45-1.17-.45-.68,0-1.21.29-1.6.86l-1.07-.67c.59-.84,1.45-1.26,2.61-1.26h0ZM56.3,3.45c0,.24-.08.44-.25.6s-.37.25-.6.25-.44-.08-.6-.25-.25-.37-.25-.6.08-.44.25-.6.37-.25.6-.25.44.08.6.25.25.37.25.6ZM56.06,5.67v6.45h-1.21v-6.45s1.21,0,1.21,0ZM58.9,2.69v9.43h-1.21V2.69h1.21Z"/>
    </g>
  </g>
</svg>