<?xml version="1.0" encoding="UTF-8"?>
<svg id="Capa_2" data-name="Capa 2" xmlns="http://www.w3.org/2000/svg" viewBox="0 0 47.93 58.9">
  <g id="Capa_1-2" data-name="Capa 1">
    <path d="M46.41,20.07c-3.91,2.4-6.32,6.63-6.37,11.22.02,5.19,3.12,9.88,7.9,11.91-.92,2.98-2.28,5.79-4.05,8.36-2.52,3.63-5.15,7.25-9.16,7.25s-5.04-2.33-9.66-2.33-6.11,2.41-9.77,2.41-6.22-3.36-9.16-7.49C2.26,45.64.13,38.86,0,31.91,0,20.45,7.44,14.39,14.77,14.39c3.89,0,7.14,2.56,9.58,2.56s5.95-2.71,10.38-2.71c4.62-.12,9,2.07,11.67,5.84ZM32.63,9.39c1.95-2.3,3.06-5.19,3.13-8.2,0-.4-.04-.79-.11-1.18-3.35.33-6.45,1.93-8.66,4.47-1.97,2.2-3.12,5.02-3.24,7.98,0,.36.04.72.11,1.07.26.05.53.08.8.08,3.12-.25,6-1.77,7.97-4.2h0Z"/>
  </g>
</svg>