<?xml version="1.0" encoding="UTF-8"?>
<svg id="Capa_2" data-name="Capa 2" xmlns="http://www.w3.org/2000/svg" viewBox="0 0 58.9 12.01">
  <defs>
    <style>
      .cls-1 {
        fill: #32373c;
      }
    </style>
  </defs>
  <g id="Capa_1-2" data-name="Capa 1">
    <g>
      <path class="cls-1" d="M33.47,4.46h-2.39v.25c.75,0,.87.16.87,1.11v1.71c0,.95-.12,1.12-.87,1.12-.57-.08-.96-.39-1.49-.97l-.62-.67c.83-.15,1.27-.67,1.27-1.25,0-.73-.63-1.29-1.8-1.29h-2.35v.25c.75,0,.87.16.87,1.11v1.71c0,.95-.12,1.12-.87,1.12v.25h2.65v-.25c-.75,0-.87-.17-.87-1.12v-.48h.23l1.48,1.86h3.88c1.91,0,2.74-1.01,2.74-2.23s-.83-2.22-2.73-2.22ZM27.89,6.63v-1.77h.55c.49,0,.89.4.89.89s-.4.89-.89.89h-.55ZM33.52,8.5h-.09c-.48,0-.55-.12-.55-.73v-2.9h.64c1.4,0,1.64,1.01,1.64,1.8s-.26,1.83-1.65,1.83h0Z"/>
      <path class="cls-1" d="M18.67,7.13l.93-2.72c.27-.79.15-1.01-.7-1.01v-.27h2.51v.27c-.84,0-1.04.2-1.37,1.16l-1.52,4.56h-.17l-1.36-4.19-1.4,4.19h-.17l-1.48-4.56c-.32-.97-.53-1.16-1.31-1.16v-.27h2.96v.27c-.79,0-1,.19-.72,1.01l.89,2.72,1.35-4h.25l1.32,4Z"/>
      <path class="cls-1" d="M23.2,9.07c-1.47,0-2.67-1.08-2.67-2.4s1.2-2.39,2.67-2.39,2.67,1.08,2.67,2.39-1.2,2.4-2.67,2.4ZM23.2,4.7c-1.23,0-1.65,1.11-1.65,1.97s.43,1.97,1.65,1.97,1.67-1.09,1.67-1.97-.43-1.97-1.67-1.97Z"/>
      <path class="cls-1" d="M39.5,8.63v.27h-3.05v-.27c.89,0,1.05-.23,1.05-1.56v-2.14c0-1.34-.16-1.55-1.05-1.55v-.27h2.76c1.37,0,2.14.7,2.14,1.65s-.76,1.64-2.14,1.64h-.76v.65c0,1.34.16,1.56,1.05,1.56ZM39.21,3.61h-.76v2.33h.76c.75,0,1.09-.52,1.09-1.15s-.35-1.18-1.09-1.18Z"/>
      <path class="cls-1" d="M50.51,7.65l-.07.23c-.12.44-.27.6-1.21.6h-.19c-.7,0-.81-.16-.81-1.11v-.61c1.04,0,1.12.09,1.12.79h.25v-1.99h-.25c0,.7-.08.79-1.12.79v-1.49h.73c.95,0,1.09.16,1.21.6l.07.25h.21l-.09-1.25h-3.92v.25c.75,0,.87.16.87,1.11v1.71c0,.87-.1,1.08-.7,1.12-.56-.09-.94-.39-1.47-.97l-.61-.67c.83-.15,1.27-.67,1.27-1.25,0-.73-.63-1.29-1.8-1.29h-2.34v.25c.75,0,.87.16.87,1.11v1.71c0,.95-.12,1.12-.87,1.12v.25h2.65v-.25c-.75,0-.87-.17-.87-1.12v-.48h.23l1.48,1.86h5.48l.08-1.25h-.2ZM43.44,6.63v-1.77h.55c.49,0,.89.4.89.89s-.4.89-.89.89h-.55Z"/>
      <path class="cls-1" d="M53.22,9.07c-.44-.02-.86-.18-1.2-.47-.11.13-.19.29-.21.47h-.27v-1.84h.27c.11.88.72,1.4,1.51,1.4.43,0,.77-.23.77-.64,0-.35-.31-.61-.85-.87l-.76-.36c-.53-.25-.93-.7-.93-1.28,0-.64.6-1.19,1.43-1.19.38,0,.74.12,1.04.35.09-.1.15-.23.17-.36h.25v1.57h-.28c-.09-.63-.44-1.15-1.15-1.15-.37,0-.72.21-.72.55s.28.53.93.83l.73.36c.64.31.89.8.89,1.2,0,.84-.74,1.43-1.63,1.43Z"/>
      <path class="cls-1" d="M57.25,9.07c-.44-.02-.86-.18-1.2-.47-.11.13-.19.29-.21.47h-.25v-1.84h.27c.11.88.72,1.4,1.51,1.4.43,0,.77-.23.77-.64,0-.35-.31-.61-.85-.87l-.76-.36c-.53-.25-.93-.7-.93-1.28,0-.64.6-1.19,1.43-1.19.38,0,.74.12,1.04.35.09-.1.15-.23.17-.36h.25v1.57h-.28c-.09-.63-.44-1.15-1.15-1.15-.37,0-.72.21-.72.55s.28.53.93.83l.73.36c.64.31.89.8.89,1.2-.02.84-.75,1.43-1.64,1.43Z"/>
      <path class="cls-1" d="M6.01.36c1.12,0,2.22.33,3.15.96.91.61,1.62,1.47,2.04,2.48.74,1.76.55,3.77-.52,5.35-.61.91-1.47,1.62-2.48,2.04-1.76.74-3.77.55-5.35-.52-.91-.61-1.62-1.47-2.04-2.48C.06,6.44.26,4.43,1.33,2.85c.61-.91,1.47-1.62,2.48-2.04.69-.29,1.44-.45,2.2-.44M6.01,0C2.69,0,0,2.69,0,6s2.69,6.01,6,6.01c3.32,0,6.01-2.69,6.01-6h0C12.01,2.69,9.32,0,6,0h0Z"/>
      <path class="cls-1" d="M1,6.01c0,1.92,1.09,3.67,2.82,4.5L1.44,3.97c-.29.64-.43,1.33-.43,2.04ZM9.38,5.76c0-.49-.15-.96-.41-1.38-.25-.41-.49-.76-.49-1.16-.01-.48.36-.87.84-.89h.07c-2.03-1.87-5.2-1.73-7.07.3-.18.2-.34.41-.49.63h.32c.52,0,1.33-.06,1.33-.06.11,0,.21.09.21.21,0,.1-.07.19-.18.21,0,0-.27.03-.57.05l1.82,5.42,1.1-3.28-.78-2.14c-.27-.02-.53-.05-.53-.05-.11-.02-.19-.12-.17-.24.02-.1.1-.18.21-.18,0,0,.83.06,1.32.06s1.33-.06,1.33-.06c.11,0,.21.09.21.21,0,.1-.07.19-.18.21,0,0-.27.03-.57.05l1.81,5.38.52-1.63c.2-.53.32-1.08.36-1.65h0ZM6.09,6.45l-1.5,4.36c1.01.3,2.08.27,3.08-.08-.01-.02-.03-.05-.03-.07l-1.54-4.21ZM10.39,3.61c.02.17.03.34.03.51,0,.62-.14,1.22-.38,1.79l-1.53,4.42c2.34-1.36,3.18-4.35,1.87-6.73h0Z"/>
    </g>
  </g>
</svg>