<?xml version="1.0" encoding="UTF-8"?>
<svg id="Capa_2" data-name="Capa 2" xmlns="http://www.w3.org/2000/svg" xmlns:xlink="http://www.w3.org/1999/xlink" viewBox="0 0 58.9 53.64">
  <defs>
    <style>
      .cls-1 {
        fill: url(#Degradado_sin_nombre_27);
      }

      .cls-2 {
        fill: url(#Degradado_sin_nombre_24);
      }

      .cls-3 {
        fill: url(#Degradado_sin_nombre_26);
      }

      .cls-4 {
        fill: url(#Degradado_sin_nombre_29);
      }

      .cls-5 {
        fill: url(#Degradado_sin_nombre_28);
      }

      .cls-6 {
        fill: url(#Degradado_sin_nombre_25);
      }
    </style>
    <radialGradient id="Degradado_sin_nombre_29" data-name="Degradado sin nombre 29" cx="-6.58" cy="23.84" fx="-6.58" fy="23.84" r="1.34" gradientTransform="translate(-323.9 181.99) rotate(-129.3) scale(17.3 16.27) skewX(.01)" gradientUnits="userSpaceOnUse">
      <stop offset=".1" stop-color="#00aeff"/>
      <stop offset=".77" stop-color="#2253ce"/>
      <stop offset="1" stop-color="#0736c4"/>
    </radialGradient>
    <radialGradient id="Degradado_sin_nombre_28" data-name="Degradado sin nombre 28" cx="69.13" cy="31.82" fx="69.13" fy="31.82" r="1.34" gradientTransform="translate(-280.42 -1133.06) rotate(51.83) scale(15.99 15.51) skewX(-.03)" gradientUnits="userSpaceOnUse">
      <stop offset="0" stop-color="#ffb657"/>
      <stop offset=".63" stop-color="#ff5f3d"/>
      <stop offset=".92" stop-color="#c02b3c"/>
    </radialGradient>
    <linearGradient id="Degradado_sin_nombre_27" data-name="Degradado sin nombre 27" x1="385.43" y1="558.4" x2="388.5" y2="593.91" gradientTransform="translate(-368 -554)" gradientUnits="userSpaceOnUse">
      <stop offset=".16" stop-color="#0d91e1"/>
      <stop offset=".49" stop-color="#52b471"/>
      <stop offset=".65" stop-color="#98bd42"/>
      <stop offset=".94" stop-color="#ffc800"/>
    </linearGradient>
    <linearGradient id="Degradado_sin_nombre_26" data-name="Degradado sin nombre 26" x1="385.73" y1="553.96" x2="387.41" y2="592.68" gradientTransform="translate(-368 -554)" gradientUnits="userSpaceOnUse">
      <stop offset="0" stop-color="#3dcbff"/>
      <stop offset=".25" stop-color="#0588f7" stop-opacity="0"/>
    </linearGradient>
    <radialGradient id="Degradado_sin_nombre_25" data-name="Degradado sin nombre 25" cx="39.7" cy="16.89" fx="39.7" fy="16.89" r="1.34" gradientTransform="translate(1289.51 -1170.5) rotate(109.27) scale(38.39 45.99)" gradientUnits="userSpaceOnUse">
      <stop offset=".07" stop-color="#8c48ff"/>
      <stop offset=".5" stop-color="#f2598a"/>
      <stop offset=".9" stop-color="#ffb152"/>
    </radialGradient>
    <linearGradient id="Degradado_sin_nombre_24" data-name="Degradado sin nombre 24" x1="408.55" y1="566.5" x2="408.52" y2="577.05" gradientTransform="translate(-368 -554)" gradientUnits="userSpaceOnUse">
      <stop offset=".06" stop-color="#f8adfa"/>
      <stop offset=".71" stop-color="#a86edd" stop-opacity="0"/>
    </linearGradient>
  </defs>
  <g id="Capa_1-2" data-name="Capa 1">
    <g>
      <path class="cls-4" d="M43.05,4.47C42.27,1.82,39.85,0,37.09,0h-1.81c-2.99,0-5.56,2.14-6.1,5.08l-3.1,16.91.76-2.68c.77-2.64,3.2-4.46,5.95-4.47h10.53l4.41,1.72,4.26-1.72h-1.25c-2.75,0-5.18-1.81-5.95-4.45l-1.76-5.93Z"/>
      <path class="cls-5" d="M16.48,49.16c.77,2.66,3.2,4.48,5.97,4.48h3.85c3.37,0,6.12-2.68,6.21-6.05l.42-16.31-.87,2.99c-.77,2.64-3.2,4.46-5.95,4.47h-10.62l-3.78-2.05-4.1,2.05h1.22c2.76,0,5.2,1.82,5.97,4.48l1.7,5.94Z"/>
      <path class="cls-1" d="M36.82,0H15.37C9.22,0,5.54,8.13,3.07,16.24.16,25.87-3.64,38.73,7.37,38.73h9.29c2.78,0,5.22-1.84,5.98-4.51,1.61-5.65,4.44-15.5,6.71-23.01,1.13-3.81,2.07-7.08,3.51-9.12.9-1.3,2.38-2.08,3.96-2.09Z"/>
      <path class="cls-3" d="M36.82,0H15.37C9.22,0,5.54,8.13,3.07,16.24.16,25.87-3.64,38.73,7.37,38.73h9.29c2.78,0,5.22-1.84,5.98-4.51,1.61-5.65,4.44-15.5,6.71-23.01,1.13-3.81,2.07-7.08,3.51-9.12.9-1.3,2.38-2.08,3.96-2.09Z"/>
      <path class="cls-6" d="M22.07,53.64h21.46c6.14,0,9.83-8.13,12.3-16.25,2.91-9.63,6.71-22.49-4.3-22.49h-9.29c-2.78,0-5.22,1.84-5.98,4.51-1.61,5.65-4.44,15.5-6.71,23.01-1.13,3.81-2.07,7.09-3.51,9.13-.9,1.3-2.38,2.08-3.96,2.09Z"/>
      <path class="cls-2" d="M22.07,53.64h21.46c6.14,0,9.83-8.13,12.3-16.25,2.91-9.63,6.71-22.49-4.3-22.49h-9.29c-2.78,0-5.22,1.84-5.98,4.51-1.61,5.65-4.44,15.5-6.71,23.01-1.13,3.81-2.07,7.09-3.51,9.13-.9,1.3-2.38,2.08-3.96,2.09Z"/>
    </g>
  </g>
</svg>