<?xml version="1.0" encoding="UTF-8"?>
<svg id="Capa_2" data-name="Capa 2" xmlns="http://www.w3.org/2000/svg" xmlns:xlink="http://www.w3.org/1999/xlink" viewBox="0 0 58.9 7.31">
  <defs>
    <style>
      .cls-1 {
        fill: none;
      }

      .cls-2 {
        fill: #0066b2;
      }

      .cls-3 {
        fill: url(#Degradado_sin_nombre_5);
      }

      .cls-4 {
        fill: #0087ca;
      }

      .cls-5 {
        clip-path: url(#clippath);
      }
    </style>
    <clipPath id="clippath">
      <path class="cls-1" d="M1.85,3.29s-.05.05-.06.08L.02,6.91c-.05.1-.01.23.09.28.03.02.06.02.1.02h2.46c.08,0,.15-.04.19-.12.16-.35.25-.74.26-1.13v-.19c-.02-.91-.37-1.78-.98-2.46-.07-.09-.2-.11-.29-.04h0Z"/>
    </clipPath>
    <linearGradient id="Degradado_sin_nombre_5" data-name="Degradado sin nombre 5" x1="303.73" y1="-293.41" x2="304.08" y2="-293.41" gradientTransform="translate(3253.4 3144.71) rotate(-180) scale(10.7 -10.7)" gradientUnits="userSpaceOnUse">
      <stop offset="0" stop-color="#0066b2"/>
      <stop offset=".92" stop-color="#0087ca"/>
      <stop offset="1" stop-color="#0087ca"/>
    </linearGradient>
  </defs>
  <g id="Capa_1-2" data-name="Capa 1">
    <g>
      <g class="cls-5">
        <rect class="cls-3" x="-.96" y="2.88" width="5.01" height="4.71" transform="translate(-3.76 3.96) rotate(-60)"/>
      </g>
      <path class="cls-4" d="M3.44.11c-.9,1.38-1,3.13-.27,4.61l1.19,2.38c.04.07.11.12.19.12h2.46c.12,0,.21-.09.21-.21,0-.03,0-.07-.02-.1L3.8.11c-.05-.1-.17-.14-.27-.09-.04.02-.07.05-.09.09"/>
      <path class="cls-2" d="M32.35,2.95c0,.88.41,1.57,2,1.88.94.2,1.15.35,1.15.67s-.2.51-.87.51c-.81-.01-1.6-.23-2.3-.62v1.43c.71.36,1.5.52,2.3.49,1.66,0,2.32-.74,2.32-1.84M36.94,5.46c0-1.04-.55-1.53-2.11-1.86-.86-.19-1.07-.38-1.07-.65,0-.34.31-.49.88-.49.7.02,1.38.19,2.01.5v-1.37c-.62-.28-1.28-.42-1.96-.41-1.54,0-2.33.67-2.33,1.76"/>
      <polygon class="cls-2" points="53.72 1.28 53.72 7.22 54.98 7.22 54.98 2.69 55.51 3.89 57.3 7.22 58.9 7.22 58.9 1.28 57.63 1.28 57.63 5.11 57.15 4 55.71 1.28 53.72 1.28"/>
      <rect class="cls-2" x="44.29" y="1.28" width="1.38" height="5.94"/>
      <path class="cls-2" d="M42.69,5.46c0-1.04-.55-1.53-2.11-1.86-.86-.19-1.07-.38-1.07-.65,0-.34.31-.49.88-.49.7.02,1.38.19,2.01.5v-1.37c-.62-.28-1.28-.42-1.96-.41-1.54,0-2.33.67-2.33,1.76,0,.88.41,1.57,2,1.88.94.2,1.15.35,1.15.67s-.2.51-.87.51c-.81-.01-1.6-.23-2.3-.62v1.43c.71.35,1.49.53,2.29.5,1.66,0,2.32-.74,2.32-1.84"/>
      <polygon class="cls-2" points="21.61 1.28 21.61 7.22 24.46 7.22 24.9 5.93 23 5.93 23 1.28 21.61 1.28"/>
      <polygon class="cls-2" points="16 1.28 16 2.56 17.53 2.56 17.53 7.22 18.93 7.22 18.93 2.56 20.57 2.56 20.57 1.28 16 1.28"/>
      <path class="cls-2" d="M13.98,1.28h-1.82l-2.07,5.94h1.58l.29-1c.72.21,1.49.21,2.21,0l.29,1h1.58l-2.07-5.94ZM13.07,5.15c-.25,0-.51-.04-.75-.11l.75-2.59.75,2.59c-.24.07-.5.11-.75.11"/>
      <path class="cls-2" d="M29.35,1.28h-1.82l-2.07,5.94h1.58l.29-1c.72.21,1.49.21,2.21,0l.29,1h1.58l-2.07-5.94ZM28.44,5.15c-.25,0-.51-.04-.75-.11l.75-2.59.75,2.59c-.24.07-.5.11-.75.11"/>
      <path class="cls-2" d="M50.65,1.28h-1.82l-2.07,5.94h1.58l.29-1c.72.21,1.49.21,2.21,0l.29,1h1.58l-2.07-5.94ZM49.74,5.15c-.25,0-.51-.04-.75-.11l.75-2.59.75,2.59c-.24.07-.5.11-.75.11"/>
    </g>
  </g>
</svg>