<?xml version="1.0" encoding="UTF-8"?>
<svg id="Capa_2" data-name="Capa 2" xmlns="http://www.w3.org/2000/svg" xmlns:xlink="http://www.w3.org/1999/xlink" viewBox="0 0 58.9 58.57">
  <defs>
    <style>
      .cls-1 {
        mask: url(#mask);
      }

      .cls-2 {
        fill: #1f9cf0;
      }

      .cls-3 {
        fill: #fff;
      }

      .cls-4 {
        fill: #007acc;
      }

      .cls-5 {
        fill: url(#Degradado_sin_nombre_3);
      }

      .cls-6 {
        opacity: .25;
      }

      .cls-7 {
        fill: #0065a9;
      }
    </style>
    <mask id="mask" x="0" y="0" width="58.92" height="58.57" maskUnits="userSpaceOnUse">
      <g id="a">
        <path class="cls-3" d="M41.77,58.31c.95.38,2.02.34,2.94-.11l12.12-5.83c1.27-.61,2.08-1.9,2.08-3.31V9.51c0-1.41-.81-2.7-2.08-3.31L44.72.36c-1.4-.68-3.08-.39-4.18.71l-23.2,21.19-10.11-7.65c-.94-.71-2.26-.66-3.13.14l-3.24,2.94c-1,.91-1.07,2.47-.16,3.47.05.06.1.11.16.16l8.74,7.96L.84,37.27c-1,.91-1.07,2.47-.16,3.47.05.06.1.11.16.16l3.24,2.94c.87.8,2.19.86,3.13.14l10.11-7.65,23.2,21.19c.36.35.79.61,1.26.79ZM44.19,15.93l-17.6,13.35,17.58,13.36.02-26.71Z"/>
      </g>
    </mask>
    <linearGradient id="Degradado_sin_nombre_3" data-name="Degradado sin nombre 3" x1="491.41" y1="436.26" x2="491.41" y2="494.83" gradientTransform="translate(-461.97 -436.26)" gradientUnits="userSpaceOnUse">
      <stop offset="0" stop-color="#fff"/>
      <stop offset="1" stop-color="#fff" stop-opacity="0"/>
    </linearGradient>
  </defs>
  <g id="Capa_1-2" data-name="Capa 1">
    <g class="cls-1">
      <g>
        <path class="cls-7" d="M56.81,6.21L44.69.37c-1.4-.68-3.08-.39-4.19.71L.8,37.28c-1,.91-1.07,2.47-.16,3.47.05.06.1.11.16.16l3.24,2.94c.87.79,2.19.85,3.13.14L54.99,7.72c1.07-.81,2.6-.6,3.41.47.32.42.49.94.49,1.47v-.14c0-1.41-.81-2.7-2.08-3.31Z"/>
        <path class="cls-4" d="M56.81,52.35l-12.13,5.84c-1.4.68-3.08.39-4.19-.71L.8,21.28c-1-.91-1.07-2.47-.16-3.47.05-.06.1-.11.16-.16l3.24-2.94c.87-.79,2.19-.85,3.13-.14l47.81,36.27c1.07.81,2.6.6,3.41-.47.32-.42.49-.94.49-1.47v.14c0,1.41-.81,2.7-2.08,3.31Z"/>
        <path class="cls-2" d="M44.69,58.2c-1.4.68-3.08.39-4.19-.71.84.84,2.2.84,3.05,0,.41-.4.63-.95.63-1.53V2.6c0-1.19-.96-2.16-2.15-2.16-.57,0-1.12.23-1.53.63,1.1-1.1,2.78-1.39,4.19-.71l12.13,5.83c1.27.61,2.08,1.9,2.08,3.31v39.54c0,1.41-.81,2.7-2.08,3.31l-12.13,5.84Z"/>
        <g class="cls-6">
          <path class="cls-5" d="M41.74,58.31c.95.38,2.02.34,2.94-.11l12.12-5.83c1.27-.61,2.08-1.9,2.08-3.31V9.51c0-1.41-.81-2.7-2.08-3.31L44.68.36c-1.4-.68-3.08-.39-4.18.71l-23.2,21.19-10.11-7.65c-.94-.71-2.26-.66-3.13.14l-3.24,2.94c-1,.91-1.07,2.47-.16,3.47.05.06.1.11.16.16l8.74,7.96L.8,37.27c-1,.91-1.07,2.47-.16,3.47.05.06.1.11.16.16l3.24,2.94c.87.8,2.19.86,3.13.14l10.11-7.65,23.2,21.19c.36.35.79.61,1.26.79ZM44.15,15.93l-17.6,13.35,17.61,13.36V15.93Z"/>
        </g>
      </g>
    </g>
  </g>
</svg>