<?xml version="1.0" encoding="UTF-8"?>
<svg id="Capa_2" data-name="Capa 2" xmlns="http://www.w3.org/2000/svg" xmlns:xlink="http://www.w3.org/1999/xlink" viewBox="0 0 53.54 58.9">
  <defs>
    <style>
      .cls-1 {
        fill: url(#Degradado_sin_nombre_15);
      }

      .cls-2 {
        fill: url(#Degradado_sin_nombre_16);
      }

      .cls-3 {
        fill: url(#Degradado_sin_nombre_17);
      }

      .cls-4 {
        fill: url(#Degradado_sin_nombre_18);
      }

      .cls-5 {
        fill: url(#Degradado_sin_nombre_19);
      }

      .cls-6 {
        fill: url(#Degradado_sin_nombre_20);
      }
    </style>
    <radialGradient id="Degradado_sin_nombre_20" data-name="Degradado sin nombre 20" cx="-1278.33" cy="-402.81" fx="-1278.33" fy="-402.81" r=".91" gradientTransform="translate(-54329.01 46719.87) rotate(110.53) scale(49.13 85.69)" gradientUnits="userSpaceOnUse">
      <stop offset=".06" stop-color="#ae7fe2"/>
      <stop offset="1" stop-color="#0078d4"/>
    </radialGradient>
    <linearGradient id="Degradado_sin_nombre_19" data-name="Degradado sin nombre 19" x1="-174.69" y1="288.91" x2="-178.94" y2="281.57" gradientTransform="translate(288.55 -390.23) scale(1.5)" gradientUnits="userSpaceOnUse">
      <stop offset="0" stop-color="#114a8b"/>
      <stop offset="1" stop-color="#0078d4" stop-opacity="0"/>
    </linearGradient>
    <radialGradient id="Degradado_sin_nombre_18" data-name="Degradado sin nombre 18" cx="-1253.66" cy="-342.85" fx="-1253.66" fy="-342.85" r=".91" gradientTransform="translate(58219.52 1945.91) rotate(-8.37) scale(45.72 30.2)" gradientUnits="userSpaceOnUse">
      <stop offset=".13" stop-color="#d59dff"/>
      <stop offset="1" stop-color="#5e438f"/>
    </radialGradient>
    <linearGradient id="Degradado_sin_nombre_17" data-name="Degradado sin nombre 17" x1="-164.27" y1="277.98" x2="-168.82" y2="284.51" gradientTransform="translate(288.55 -390.23) scale(1.5)" gradientUnits="userSpaceOnUse">
      <stop offset="0" stop-color="#493474"/>
      <stop offset="1" stop-color="#8c66ba" stop-opacity="0"/>
    </linearGradient>
    <radialGradient id="Degradado_sin_nombre_16" data-name="Degradado sin nombre 16" cx="-1333.38" cy="-390.1" fx="-1333.38" fy="-390.1" r=".91" gradientTransform="translate(-41460.23 -35355.45) rotate(-165.77) scale(36.7 61.77)" gradientUnits="userSpaceOnUse">
      <stop offset=".06" stop-color="#50e6ff"/>
      <stop offset="1" stop-color="#436dcd"/>
    </radialGradient>
    <linearGradient id="Degradado_sin_nombre_15" data-name="Degradado sin nombre 15" x1="-180.79" y1="273.09" x2="-174.09" y2="273.09" gradientTransform="translate(288.55 -390.23) scale(1.5)" gradientUnits="userSpaceOnUse">
      <stop offset="0" stop-color="#2d3f80"/>
      <stop offset="1" stop-color="#436dcd" stop-opacity="0"/>
    </linearGradient>
  </defs>
  <g id="Capa_1-2" data-name="Capa 1">
    <g>
      <path class="cls-6" d="M21.53,1.38l-.3.18c-.47.29-.92.61-1.35.96l.89-.61h7.36l1.31,10.14-6.69,6.69-6.69,4.65v5.35c0,3.75,1.96,7.22,5.17,9.16l7.05,4.27-14.89,8.69h-2.87l-5.35-3.24C1.95,45.68,0,42.2,0,38.46v-18.03c0-3.75,1.96-7.22,5.17-9.16L21.23,1.55l.3-.17Z"/>
      <path class="cls-5" d="M21.53,1.38l-.3.18c-.47.29-.92.61-1.35.96l.89-.61h7.36l1.31,10.14-6.69,6.69-6.69,4.65v5.35c0,3.75,1.96,7.22,5.17,9.16l7.05,4.27-14.89,8.69h-2.87l-5.35-3.24C1.95,45.68,0,42.2,0,38.46v-18.03c0-3.75,1.96-7.22,5.17-9.16L21.23,1.55l.3-.17Z"/>
      <path class="cls-4" d="M37.48,22.75v6c0,3.75-1.96,7.22-5.17,9.16l-16.06,9.73c-3.27,1.98-7.36,2.06-10.71.21l15.69,9.49c3.41,2.06,7.68,2.06,11.09,0l16.06-9.73c3.2-1.94,5.16-5.42,5.16-9.16v-4.33l-1.34-2.01-14.72-9.37Z"/>
      <path class="cls-3" d="M37.48,22.75v6c0,3.75-1.96,7.22-5.17,9.16l-16.06,9.73c-3.27,1.98-7.36,2.06-10.71.21l15.69,9.49c3.41,2.06,7.68,2.06,11.09,0l16.06-9.73c3.2-1.94,5.16-5.42,5.16-9.16v-4.33l-1.34-2.01-14.72-9.37Z"/>
      <path class="cls-2" d="M48.37,11.26L32.31,1.55c-3.29-1.99-7.4-2.06-10.76-.19l-.32.2c-3.2,1.94-5.16,5.41-5.17,9.15v12.7l5.17-3.12c3.41-2.06,7.68-2.06,11.08,0l16.06,9.72c3.1,1.87,5.05,5.19,5.17,8.82v-18.39c0-3.75-1.96-7.22-5.17-9.16Z"/>
      <path class="cls-1" d="M48.37,11.26L32.31,1.55c-3.29-1.99-7.4-2.06-10.76-.19l-.32.2c-3.2,1.94-5.16,5.41-5.17,9.15v12.7l5.17-3.12c3.41-2.06,7.68-2.06,11.08,0l16.06,9.72c3.1,1.87,5.05,5.19,5.17,8.82v-18.39c0-3.75-1.96-7.22-5.17-9.16Z"/>
    </g>
  </g>
</svg>