<?xml version="1.0" encoding="UTF-8"?>
<svg id="Capa_2" data-name="Capa 2" xmlns="http://www.w3.org/2000/svg" viewBox="0 0 58.9 11.77">
  <defs>
    <style>
      .cls-1 {
        fill-rule: evenodd;
      }
    </style>
  </defs>
  <g id="Capa_1-2" data-name="Capa 1">
    <path class="cls-1" d="M13.53,11.77L6.77,0,0,11.77h13.53ZM20.36,11.23L26.01.54h-2.45l-3.9,7.77L15.77.54h-2.45l5.65,10.7h1.38ZM58.9.54v10.7h-2.02V.54h2.02ZM47.62,7.24c0-.83.17-1.57.52-2.2.35-.63.83-1.12,1.46-1.46s1.35-.51,2.18-.51c.74,0,1.4.16,1.99.48s1.06.8,1.41,1.43.53,1.41.54,2.32v.47h-5.96c.04.66.24,1.19.59,1.57.36.37.84.56,1.44.56.38,0,.73-.1,1.04-.3.32-.2.55-.47.71-.81l2.07.15c-.25.75-.73,1.36-1.42,1.81-.7.45-1.5.68-2.4.68-.83,0-1.56-.17-2.18-.51s-1.11-.83-1.46-1.46-.52-1.37-.52-2.2h0ZM53.64,6.49c-.07-.65-.28-1.13-.62-1.43-.34-.31-.75-.47-1.23-.47-.56,0-1.01.17-1.36.5-.35.33-.56.8-.65,1.4h3.86ZM44.21,5.05c.34.27.55.65.63,1.13l2.09-.11c-.07-.61-.29-1.15-.65-1.6s-.82-.8-1.39-1.04c-.56-.25-1.18-.38-1.85-.38-.83,0-1.56.17-2.18.51-.62.34-1.11.83-1.46,1.46s-.52,1.37-.52,2.2.17,1.57.52,2.2.83,1.12,1.46,1.46c.62.34,1.35.51,2.18.51.7,0,1.33-.13,1.9-.38.57-.26,1.03-.63,1.39-1.1s.57-1.02.65-1.66l-2.1-.09c-.07.53-.28.94-.62,1.24-.34.28-.74.42-1.22.42-.65,0-1.16-.23-1.52-.68-.36-.45-.54-1.09-.54-1.93s.18-1.48.54-1.93c.36-.45.87-.68,1.52-.68.45,0,.84.14,1.17.42h0ZM33.94,3.25h1.88l.05,1.54c.13-.44.32-.77.56-1.01.35-.35.83-.52,1.44-.52h.77v1.65h-.79c-.44,0-.8.06-1.08.18-.27.12-.48.31-.63.57-.14.26-.2.59-.2.99v4.61h-2.01V3.25h0ZM25.24,5.04c-.35.63-.52,1.37-.52,2.2s.17,1.57.52,2.2.83,1.12,1.46,1.46c.62.34,1.35.51,2.18.51.91,0,1.71-.23,2.4-.68.7-.45,1.17-1.05,1.42-1.81l-2.07-.15c-.16.34-.4.61-.71.81-.32.2-.66.3-1.04.3-.6,0-1.08-.19-1.44-.56-.35-.38-.54-.9-.59-1.57h5.96v-.47c-.01-.91-.19-1.69-.54-2.32-.35-.63-.82-1.11-1.41-1.43-.59-.32-1.26-.48-1.99-.48-.83,0-1.56.17-2.18.51-.62.34-1.11.83-1.46,1.46h0ZM30.12,5.05c.34.3.54.78.62,1.43h-3.86c.08-.6.3-1.07.65-1.4s.8-.5,1.36-.5c.48,0,.9.16,1.23.47h0Z"/>
  </g>
</svg>