<?xml version="1.0" encoding="UTF-8"?>
<svg id="Capa_2" data-name="Capa 2" xmlns="http://www.w3.org/2000/svg" viewBox="0 0 58.9 58.92">
  <defs>
    <style>
      .cls-1 {
        fill: #ff3b53;
      }

      .cls-2 {
        fill: #eae7e9;
      }

      .cls-3 {
        fill: #ff3867;
      }

      .cls-4 {
        fill: #ff3e49;
      }

      .cls-5 {
        fill: #fff;
      }

      .cls-6 {
        fill: #ff3b59;
      }

      .cls-7 {
        fill: #f8f8f8;
      }

      .cls-8 {
        fill: #ff395f;
      }

      .cls-9 {
        fill: #ff3d4e;
      }

      .cls-10 {
        fill: #fffcfd;
      }

      .cls-11 {
        fill: #ff3673;
      }
    </style>
  </defs>
  <g id="Capa_1-2" data-name="Capa 1">
    <g>
      <path class="cls-7" d="M6.38,1.85C3.65,3.42,1.63,5.97.71,8.98.01,11.26-.06,13.68.04,16.05c-.06,2.22,0,4.43-.03,6.65.01,3.69-.03,7.39.02,11.08C0,36.67,0,39.57.03,42.45c-.09,2.84-.07,5.79,1.02,8.47,1.27,3.19,3.8,5.7,7,6.94,1.5.61,3.12.85,4.73.99,1.75.07,3.49.02,5.24.03h26c2.12.02,4.29-.13,6.3-.84,1.86-.61,3.54-1.68,4.89-3.1,2.01-2.01,3.2-4.77,3.49-7.58.21-1.23.17-2.49.17-3.74v-24.4c.03-.76,0-1.52,0-2.29-.02-2.23.13-4.51-.4-6.7-.37-1.98-1.22-3.85-2.49-5.42h-.04c-1.82-2.39-4.61-3.94-7.54-4.48-1.13-.21-2.28-.32-3.42-.32C42,.01,39,0,36,.01,28.69-.01,21.37.01,14.05,0c-2.65.04-5.37.5-7.68,1.85Z"/>
      <path class="cls-6" d="M56.69,10.32c.46.13.87-.09,1.23-.36.18.09.37.18.56.28.52,2.19.38,4.47.4,6.7,0,.76.02,1.52,0,2.29-.06.25-.13.49-.2.74-.08-.29-.16-.59-.25-.88-.12.23-.18.48-.16.74-.09-.27-.18-.53-.27-.8-.06.19-.12.38-.18.57-.25-.04-.49-.07-.74-.1-.01.27-.12.54-.3.74l-.31-.19c-.08.15-.17.29-.25.44-.24-.03-.49-.07-.74-.12-.27.59-.95.61-1.49.79-.12-.32-.07-.88-.54-.85.07.34.28.71.13,1.06-.28.07-.56.11-.85.1-.06.07-.13.14-.19.21l-.22-.13c-.01.07-.04.2-.05.27l-.25-.11-.3.33c-.05-.12-.11-.25-.16-.35-.21.52-.83.55-1.29.74-.7.14-1.37.42-1.97.81-.06-.74.14-1.52-.16-2.23-.09-1.62.17-3.28-.28-4.87-.25-.91-.67-1.75-1.25-2.5.33-.21.67-.49,1.09-.46.29-.02.64.1.86-.14.36-.34.87-.37,1.32-.51l-.17-.23c.45,0,.9.04,1.34.15l.03-.48c.29-.02.56-.16.76-.37.35-.18.68.12.93.33.14-.26.32-.5.53-.72l.4.34.48-.51c.06.13.13.25.2.38.08-.07.16-.14.25-.2.3-.14.62-.23.94-.25l.2-.43.13.33c.04-.09.08-.17.11-.26l.51.05c.05-.1.11-.21.16-.32Z"/>
      <path class="cls-11" d="M6.38,1.85C8.69.51,11.41.04,14.05.03c7.32,0,14.63-.01,21.95.01-.53.42-1.23.29-1.86.39-.02.14-.04.28-.06.42l-.16-.53c-.04.14-.07.28-.1.42-.58.25-1.29.22-1.77.68-.39-.07-.74.13-1.12.2-.33.05-.55.39-.9.33s-.62.25-.88.43c-.05-.13-.1-.25-.15-.38-.09.19-.2.36-.32.53-.3.13-.62-.07-.92-.03-.19.03-.27.23-.37.36l-.25-.16-.09.33c-.04-.12-.09-.25-.13-.36l-.2.37c-.03-.18-.05-.36-.08-.53-.08.31-.17.62-.25.93-.21-.23-.35-.5-.42-.8l-.48.49-.13-.34c-.02.08-.06.25-.08.33l-.21-.16c-.11.28-.21.55-.32.83l-.21-.09c-.39.04-.77.04-1.16,0l-.33.68-.15-.36c-.04.23-.08.45-.13.68-.05-.23-.09-.45-.13-.68-.04.16-.1.32-.16.47-.49.33-1.08.64-1.68.43-.05.13-.1.26-.15.39l-.22-.12-.39.28-.33-.15c-.21.28-.43.62-.83.44l-.3.25-.3-.14-.44.41c-.18-.12-.36-.22-.56-.31-.29-.07-.35.3-.49.47l-.08-.38c-.04.11-.08.22-.11.33l-.19-.11c-.1.18-.22.35-.35.51-.16.03-.33.05-.49.05-.13.2-.25.39-.37.6-.17-.19-.33-.48-.63-.46-1.05-.03-2.11-.02-3.17,0-.34-.01-.63.26-.65.6-.02,1.06,0,2.13,0,3.2-1.07.01-2.14-.01-3.2,0-.27,0-.43.25-.59.41l-.22.25c-.04,1.1,0,2.22-.09,3.31-.07-.3-.13-.6-.18-.9-.43.05-.84.23-1.17.51-.12.01-.25.03-.35.04-.25.1-.49.21-.76.3-.47.03-.82.48-1.3.42-.4-.07-.68.3-1.06.35-.49.07-.93.34-1.37.56-.2.07-.18.31-.2.48-.02.88.07,1.77-.05,2.65-.18-1.04.09-2.1-.18-3.13-.1-2.37-.03-4.79.67-7.07C1.64,5.97,3.66,3.43,6.38,1.85Z"/>
      <path class="cls-3" d="M36,.04c3-.02,5.99,0,8.99,0,1.15,0,2.29.11,3.42.32,2.93.54,5.72,2.09,7.54,4.46-.58-.06-.87-.63-1.33-.9-.66.49-1.53.47-2.22.89-.69.38-1.53.27-2.22.68-.54.28-1.19.28-1.67.68l-.46-.13c-.23.28-.55.46-.91.51-.48.04-.86.37-1.33.44-.53.1-.97.46-1.51.56-.65.1-1.17.58-1.82.66-.8.1-1.44.66-2.25.69-.56.35-1.33.33-1.72.94-.31-.05-.65-.25-.94-.05-.47.25-.97.46-1.45.69-.49-.21-.96.17-1.45.14-2.66,0-5.32-.04-7.98,0-.7.03-1.44-.13-2.12.16-3.12.03-6.24,0-9.36.01v-1.09c0-.74-.03-1.49.02-2.23.11-.2.25-.4.37-.6.17,0,.33-.02.49-.05.13-.16.25-.33.35-.51l.19.11c.04-.11.08-.22.11-.33l.08.38c.14-.17.19-.54.49-.47.2.08.38.18.56.3l.45-.41.3.14.3-.25c.39.17.62-.16.83-.44l.33.15.39-.28.22.12c.05-.13.1-.26.15-.39.61.21,1.19-.11,1.68-.43.06-.16.11-.31.16-.47.04.23.09.45.13.68.04-.23.09-.45.13-.68l.15.36.33-.68c.39.04.77.04,1.16,0l.21.09c.11-.28.21-.55.32-.83l.21.16c.02-.08.06-.25.08-.33l.13.34.48-.49c.07.3.21.57.42.8.09-.31.17-.62.25-.93.03.18.05.36.08.53l.2-.37c.04.12.09.25.13.36l.09-.33.25.16c.1-.14.18-.33.37-.36.31-.04.62.16.92.03.12-.17.22-.35.32-.53.05.13.1.25.15.38.26-.19.52-.49.88-.43s.57-.29.9-.33c.37-.07.74-.27,1.12-.2.49-.46,1.18-.43,1.77-.68.03-.14.07-.28.1-.42l.16.53c.02-.14.04-.28.06-.42.61-.1,1.32.02,1.85-.39Z"/>
      <path class="cls-3" d="M6.76,11.47l.22-.25c-.02,1.09,0,2.17,0,3.26-.04.37.23.7.6.74,0,0,.02,0,.02,0,2.17.02,4.34-.02,6.5.02.56.35,1.24.17,1.87.2,1.61.02,3.23-.08,4.84.08-.35.27-.61.63-.76,1.04-.16-.18-.29-.37-.39-.59-.21.1-.42.22-.64.31-.32.07-.66.04-.93.27l-.19-.07c-.05.13-.1.26-.16.39l-.22-.09c-.37.12-.73.27-1.07.44l-.14-.02-.28.22c-.1-.07-.2-.15-.31-.21-.39.12-.66.48-1.08.53-.71.2-1.52.3-2.1.8l-.05-.25c-.25.11-.51.18-.78.2-.12.14-.26.27-.4.38-.27.07-.56.05-.82.14-.25.12-.5.26-.74.41-.22,0-.44-.03-.66-.08l-.18.4-.18-.06c-.14.16-.31.29-.49.4-.32.11-.68-.09-.99.11-.46.25-1,.3-1.38.67l-.58-.13c-.19.43-.7.43-1.09.53-.56.1-1.03.51-1.62.44l-.27.2-.19-.02-.25.19c-.62.12-1.2.41-1.66.84l-.18-.22c.02-2.22-.04-4.43.03-6.65.28,1.02,0,2.09.18,3.13.12-.88.03-1.76.05-2.65.02-.17,0-.41.2-.48.44-.22.88-.49,1.37-.56.38-.06.66-.43,1.06-.35.49.06.83-.39,1.3-.42.25-.09.5-.2.76-.3.12,0,.23-.03.35-.04.33-.28.74-.46,1.17-.51.05.3.11.61.18.9.07-1.12.02-2.23.06-3.33Z"/>
      <path class="cls-8" d="M52.4,4.81c.69-.43,1.56-.39,2.22-.89.46.28.74.84,1.33.9h.04c1.26,1.59,2.12,3.45,2.49,5.43-.18-.1-.37-.19-.56-.28-.36.26-.78.49-1.23.36-.05.11-.11.21-.16.32l-.51-.05c-.04.09-.08.17-.11.26l-.13-.33-.2.43c-.33.02-.65.1-.94.25-.09.07-.17.13-.25.2-.07-.13-.14-.25-.2-.38l-.48.51-.4-.34c-.21.22-.38.46-.53.72-.25-.22-.58-.51-.93-.33-.2.21-.47.34-.76.37l-.03.48c-.44-.11-.89-.16-1.34-.15l.17.23c-.45.14-.96.17-1.32.51-.22.25-.57.12-.86.14-.42-.03-.76.25-1.09.46-1.34-1.75-3.4-2.79-5.61-2.84-5.48-.02-10.96.01-16.43-.02.67-.29,1.41-.13,2.12-.16,2.66-.04,5.32.01,7.98,0,.49.03.96-.35,1.45-.14.49-.23.99-.44,1.45-.69.29-.18.63,0,.94.05.39-.6,1.15-.59,1.72-.94.81-.03,1.45-.6,2.25-.69.66-.08,1.17-.56,1.82-.66.53-.1.99-.46,1.51-.56.47-.07.85-.4,1.33-.44.36-.06.68-.24.91-.51l.46.13c.49-.39,1.13-.4,1.67-.68.67-.41,1.52-.3,2.21-.68Z"/>
      <path class="cls-8" d="M14.1,15.24c8.87-.03,17.76,0,26.63-.01,1.48-.05,2.75,1.04,2.93,2.5-.28,1.44-.13,2.91-.23,4.36-.23-.99-.04-1.97-.18-2.96-.78.17-1.45.61-2.22.79-.7.15-1.35.46-2.04.67-.79.19-1.54.48-2.25.86.2.26.4.51.62.76l-.09.32c-1.95-2.19-4.73-3.46-7.66-3.5-1.4-.03-2.78.23-4.07.76-3.21,1.32-5.57,4.13-6.3,7.51-.42.13-.83.3-1.23.49-.83.2-1.64.5-2.41.88-.03.36-.07.72-.1,1.08-.05-1.1-.02-2.22-.02-3.32-.01-.45.12-.99-.25-1.33-.02-1.82,0-3.65-.01-5.47-1.48.01-2.96-.02-4.43.02,0,1,.02,2-.01,3-.35.86-.1,1.79-.15,2.68-.05,1.66,0,3.32-.04,4.98-.65.07-1.19.49-1.84.57-.41.09-.81.23-1.18.42-1.13.4-2.28.74-3.41,1.16-.61.32-1.3.42-1.93.71-.1.05-.22,0-.33,0-.52.26-1.09.41-1.58.74-.03.35-.06.71-.08,1.07-.04-.4-.12-.8-.19-1.19C-.01,30.12.04,26.43.02,22.74l.18.22c.46-.44,1.04-.75,1.66-.88l.25-.19.19.02.27-.2c.59.06,1.06-.35,1.62-.44.39-.1.9-.1,1.09-.53l.58.13c.38-.37.92-.43,1.38-.67.3-.19.66,0,.99-.11.18-.11.35-.24.49-.4l.18.06.18-.4c.22.05.44.07.66.08.24-.15.48-.29.74-.41.27-.09.55-.07.82-.14.15-.12.28-.24.4-.38.27-.02.53-.09.78-.2l.05.25c.58-.49,1.38-.6,2.1-.8.42-.05.69-.42,1.08-.53.11.06.2.14.31.21l.28-.22.14.02c.35-.17.7-.32,1.07-.44l.22.09c.05-.13.1-.26.16-.39l.19.07c.26-.22.61-.19.93-.27.22-.1.43-.21.64-.31.1.21.23.41.39.59.15-.41.41-.78.76-1.04-1.61-.16-3.23-.05-4.84-.08-.61-.01-1.28.17-1.85-.18Z"/>
      <path class="cls-5" d="M10.79,7.6c.01-.34.3-.61.65-.6,1.06,0,2.11-.02,3.17,0,.3-.02.46.26.63.46-.05.74-.02,1.48-.02,2.23-.1-.22-.2-.44-.33-.65-.02.18-.04.37-.05.55l-.17-.17c-.33.29-.74.54-.9.99l-.49.11c.59.33,1.29.25,1.94.26,3.12-.01,6.24.02,9.36-.01,5.48.03,10.96,0,16.43.02,2.2.05,4.26,1.09,5.61,2.84.58.74,1,1.59,1.25,2.5.44,1.59.18,3.25.28,4.87-.03,6.09,0,12.17,0,18.26-1.48.04-2.96,0-4.43.02v-14.09c-.02-2.49.03-4.98-.03-7.47-.18-1.47-1.45-2.56-2.93-2.5-8.88.01-17.76-.02-26.63.01-2.17-.04-4.34,0-6.5-.02-.37-.02-.65-.34-.63-.71,0,0,0-.02,0-.02v-3.26c.16-.17.32-.42.59-.41,1.07-.02,2.14,0,3.2,0,.02-1.07,0-2.14.02-3.2Z"/>
      <path class="cls-5" d="M25.53,19.79c1.29-.53,2.68-.79,4.07-.76,2.93.04,5.71,1.31,7.66,3.5,1.31,1.49,2.18,3.32,2.52,5.27.33,2.19-.03,4.43-1.03,6.4-2.62,5.14-8.91,7.18-14.05,4.56-5.14-2.62-7.18-8.91-4.56-14.05,1.14-2.24,3.06-3.99,5.39-4.94h0ZM29.22,23.46c-3.31.13-5.9,2.91-5.77,6.23.05,1.44.63,2.82,1.61,3.87,2.26,2.43,6.06,2.56,8.49.3,2.43-2.26,2.56-6.06.3-8.49-1.19-1.28-2.88-1.97-4.63-1.91Z"/>
      <path class="cls-5" d="M10.78,19.66c1.48-.04,2.96,0,4.43-.02.02,1.82,0,3.65.01,5.47-.02,5.17,0,10.33,0,15.49,0,.25.01.51.04.76.17.91.77,1.67,1.6,2.07.62.34,1.34.27,2.02.27h32.29c.38-.04.72.24.75.62,0,.04,0,.08,0,.12,0,1.01.01,2.03,0,3.04,0,.36-.3.66-.66.66-.03,0-.05,0-.08,0h-3.18c-1.44,0-2.89,0-4.33,0-8.5,0-17.01,0-25.51,0-1.01,0-2.01-.19-2.94-.57-2.53-1.07-4.24-3.47-4.43-6.21-.05-1.65,0-3.3-.03-4.95.02-4.58.02-9.16,0-13.74.03-.99,0-1.99.01-2.99Z"/>
      <path class="cls-2" d="M14.89,9.06c.12.21.23.43.33.65v1.09c-.65-.02-1.35.07-1.94-.26l.49-.11c.15-.44.57-.69.9-.99l.17.17c0-.18.03-.37.05-.55Z"/>
      <path class="cls-2" d="M43.68,48.14c1.44,0,2.89,0,4.33,0,.04.64-.01,1.29-.15,1.91-.25-.14-.49-.33-.78-.32-.23-.02-.39.17-.56.3,0-.08-.03-.23-.04-.31l-.15.13c-.28-.04-.56-.05-.84-.02-.1.01-.21.01-.31,0l-.13-.07-.11.25c-.34-.25-.72-.07-.99.19-.01-.35-.1-.69-.25-1-.03-.35-.03-.7-.03-1.05Z"/>
      <path class="cls-4" d="M43.67,17.73c.06,2.49,0,4.98.03,7.47v14.09c1.48-.01,2.96.02,4.43-.02,0-6.09-.02-12.17,0-18.26.3.71.1,1.48.16,2.23.6-.39,1.27-.67,1.97-.81.46-.18,1.08-.22,1.29-.74.05.12.1.23.16.35l.3-.33.25.11c.01-.07.04-.2.05-.27l.22.13c.06-.07.13-.14.19-.21.29,0,.57-.03.85-.1.15-.34-.06-.72-.13-1.06.47-.03.42.53.54.85.54-.18,1.23-.2,1.49-.79.24.05.49.09.74.12.08-.15.16-.29.25-.44l.31.19c.18-.2.29-.46.3-.74.25.03.49.06.74.1.06-.19.12-.38.18-.57.09.27.17.54.27.8-.02-.26.04-.51.16-.74.09.29.17.58.25.88.07-.25.15-.49.2-.74.02,8.13,0,16.26,0,24.4,0,1.25.04,2.51-.17,3.74-.29,2.81-1.48,5.57-3.49,7.58-1.35,1.42-3.03,2.49-4.89,3.1-2.02.71-4.19.86-6.3.84h-25.97c-1.75-.01-3.49.03-5.24-.03-1.61-.13-3.22-.38-4.73-.99-3.2-1.24-5.73-3.76-7-6.94C-.02,48.28-.04,45.33.05,42.49c.1.53.15,1.07.17,1.61.15-.53,0-1.1.14-1.64.28-.28.74-.32,1.07-.52.11.18.19.39.25.6-.41.17-.71.54-.79.99.05.2.25.3.38.44.11-.2.18-.42.21-.64.12.05.25.09.38.11.06-.34.06-.68.02-1.02.3.31.53.69.67,1.09.41-.09.88-.33.94-.79.06-.38.12-.76.17-1.14-.22,0-.43,0-.65.01.36-.23.75-.4,1.17-.49l.17.26c.29-.49.87-.55,1.35-.72.58-.19,1.12-.53,1.75-.57,0,.26-.02.53-.03.8l.22-.05c.19-.26.4-.51.63-.74-.07.31-.36.67-.1.96.2-.21.38-.44.53-.69.14.23.23.49.27.76.49-.02.95-.2,1.32-.52-.11-.35-.17-.7-.18-1.07-.14-.1-.33-.04-.49-.06v.47l-.28-.27c-.21.09-.46.09-.67,0,.63-.25,1.27-.61,1.97-.52.05-.9-.19-1.84.15-2.71.04,1.65-.02,3.3.03,4.95.19,2.74,1.91,5.14,4.43,6.21.93.39,1.93.58,2.94.57,8.5,0,17.01,0,25.51,0,0,.35,0,.7.02,1.04,0,.72-.03,1.44,0,2.16.03.37.36.64.73.6,0,0,0,0,.01,0h3.04c.34,0,.63-.25.65-.59.03-1.07-.01-2.14,0-3.2h3.08c.36.04.69-.21.73-.58,0-.03,0-.05,0-.08.02-1.01,0-2.03,0-3.04.03-.38-.26-.71-.63-.74-.04,0-.08,0-.12,0H18.86c-.68,0-1.4.07-2.02-.27-.83-.39-1.43-1.16-1.6-2.07.31-.72.05-1.5.2-2.25.12-.59.07-1.2.13-1.8.21-.23.54-.29.83-.4,1.51-.46,2.98-1.1,4.53-1.42,3.33,4.7,9.84,5.81,14.54,2.48,1.37-.97,2.49-2.27,3.26-3.77,1-1.97,1.37-4.21,1.03-6.4l.25.21c.05.28.07.57.1.85.85-.37,1.72-.66,2.58-1.02.2-.08.42-.09.63-.03-.08.51-.04,1.03.1,1.52.09-1.48.02-2.94.05-4.41,0-.95.04-1.89-.04-2.83.11-1.5-.04-2.97.23-4.41Z"/>
      <path class="cls-1" d="M41.03,19.92c.77-.19,1.45-.63,2.22-.79.14.99-.05,1.99.18,2.96.08.94.03,1.89.04,2.83-.03,1.48.04,2.96-.05,4.41-.14-.49-.18-1.01-.1-1.52-.21-.06-.43-.05-.63.03-.85.37-1.72.66-2.58,1.02-.03-.29-.05-.57-.1-.85l-.25-.21c-.34-1.96-1.21-3.78-2.52-5.27l.09-.32c-.22-.24-.42-.5-.62-.76.71-.39,1.47-.68,2.25-.86.7-.2,1.35-.51,2.05-.66Z"/>
      <path class="cls-1" d="M10.62,25.34c.04-.89-.21-1.82.15-2.68.02,4.58.02,9.16,0,13.74-.34.86-.1,1.81-.15,2.71-.69-.09-1.34.27-1.97.52.21.09.46.09.67,0l.28.27v-.47c.16.01.35-.05.49.06.01.36.08.72.18,1.07-.36.32-.83.51-1.32.52-.04-.27-.13-.53-.27-.76-.15.25-.33.48-.53.69-.26-.29.03-.65.1-.96-.23.23-.43.48-.63.74l-.22.05c0-.27.02-.53.03-.8-.63.04-1.16.38-1.75.57-.48.18-1.06.25-1.35.72l-.17-.26c-.41.1-.81.26-1.17.49.21,0,.43-.02.65-.01-.05.38-.11.76-.17,1.14-.05.46-.53.7-.94.79-.15-.41-.38-.78-.67-1.09.05.34.04.69-.02,1.02-.13-.02-.26-.05-.38-.11-.03.23-.1.44-.21.64-.13-.14-.33-.25-.38-.44.08-.44.37-.81.79-.99-.05-.21-.13-.41-.25-.6-.34.2-.79.25-1.07.52-.14.53.02,1.1-.14,1.64-.01-.54-.07-1.08-.17-1.61C0,39.57.01,36.68.05,33.79c.08.39.15.79.19,1.19.02-.36.05-.71.08-1.07.49-.32,1.06-.47,1.58-.74.11,0,.23.05.33,0,.62-.29,1.31-.39,1.93-.71,1.12-.42,2.28-.76,3.41-1.16.37-.19.77-.33,1.18-.42.65-.07,1.19-.5,1.84-.57.04-1.65-.01-3.32.03-4.98Z"/>
      <path class="cls-1" d="M15.22,25.11c.37.35.25.88.25,1.33,0,1.1-.03,2.22.02,3.32.03-.36.07-.72.1-1.08.77-.38,1.57-.68,2.41-.88.4-.2.81-.36,1.23-.49-.59,2.85.03,5.82,1.72,8.2-1.56.32-3.02.96-4.53,1.42-.28.11-.62.17-.83.4-.06.6-.01,1.21-.13,1.8-.16.74.1,1.53-.2,2.25-.03-.25-.04-.51-.04-.76,0-5.16-.01-10.32,0-15.49Z"/>
      <path class="cls-9" d="M29.23,23.46c3.31-.12,6.1,2.47,6.22,5.78.12,3.31-2.47,6.1-5.78,6.22s-6.1-2.47-6.22-5.78c-.04-1.16.26-2.32.86-3.32,1.04-1.74,2.9-2.84,4.93-2.9Z"/>
      <path class="cls-10" d="M48.01,48.14h.1c0,1.07.04,2.14,0,3.2-.02.34-.31.6-.65.59-1.01.02-2.03,0-3.04,0-.37.04-.7-.22-.74-.59,0,0,0,0,0-.01-.03-.72,0-1.44,0-2.16.15.31.23.66.25,1,.27-.27.65-.44.99-.19l.11-.25.13.07c.1.01.21.01.31,0,.28-.03.56-.02.84.02l.15-.13c0,.08.03.23.04.31.17-.13.32-.32.56-.3.29-.01.53.18.78.32.14-.62.2-1.26.17-1.9Z"/>
    </g>
  </g>
</svg>