<?xml version="1.0" encoding="UTF-8"?>
<svg id="Capa_2" data-name="Capa 2" xmlns="http://www.w3.org/2000/svg" viewBox="0 0 58.9 57.42">
  <defs>
    <style>
      .cls-1 {
        fill: #ff9a00;
      }

      .cls-2 {
        fill: #300;
      }
    </style>
  </defs>
  <g id="Capa_1-2" data-name="Capa 1">
    <g>
      <rect class="cls-2" width="58.9" height="57.42" rx="10.43" ry="10.43"/>
      <path class="cls-1" d="M28.54,34.46h-9.13l-1.86,5.77c-.05.22-.25.37-.47.36h-4.62c-.26,0-.36-.14-.28-.43l7.9-22.76c.08-.24.16-.51.25-.81.1-.53.16-1.06.16-1.6-.02-.13.07-.26.21-.28.02,0,.05,0,.07,0h6.28c.18,0,.29.07.32.2l8.97,25.28c.08.26,0,.4-.25.4h-5.14c-.18.02-.35-.1-.4-.28l-2.01-5.84ZM20.83,29.48h6.24c-.16-.53-.35-1.12-.55-1.78-.2-.66-.43-1.36-.67-2.11l-.71-2.25c-.24-.75-.45-1.47-.65-2.17-.2-.7-.38-1.34-.53-1.92h-.04c-.22,1.07-.5,2.12-.83,3.16-.37,1.19-.75,2.4-1.13,3.63-.38,1.24-.76,2.38-1.13,3.44h0Z"/>
      <path class="cls-1" d="M41.66,18.9c-.81.03-1.6-.28-2.17-.87-.57-.61-.86-1.42-.83-2.25-.03-.82.29-1.62.89-2.19.59-.56,1.38-.87,2.19-.85.95,0,1.69.28,2.23.85.55.59.84,1.38.81,2.19.03.83-.27,1.65-.85,2.25-.6.59-1.43.91-2.27.87ZM38.93,40.19v-18.9c0-.25.11-.36.32-.36h4.86c.21,0,.32.12.32.36v18.9c0,.26-.11.4-.32.4h-4.82c-.24,0-.36-.13-.36-.4h0Z"/>
    </g>
  </g>
</svg>