<?xml version="1.0" encoding="UTF-8"?>
<svg id="Capa_2" data-name="Capa 2" xmlns="http://www.w3.org/2000/svg" viewBox="0 0 39.26 58.9">
  <defs>
    <style>
      .cls-1 {
        fill: #0acf83;
      }

      .cls-2 {
        fill: #ff7262;
      }

      .cls-3 {
        fill: #1abcfe;
      }

      .cls-4 {
        fill: #f24e1e;
      }

      .cls-5 {
        fill: #a259ff;
      }
    </style>
  </defs>
  <g id="Capa_1-2" data-name="Capa 1">
    <g>
      <path class="cls-3" d="M19.63,29.45c0-5.42,4.39-9.82,9.82-9.82s9.82,4.39,9.82,9.82-4.39,9.82-9.82,9.82h0c-5.42,0-9.82-4.39-9.82-9.82Z"/>
      <path class="cls-1" d="M0,49.08c0-5.42,4.39-9.82,9.82-9.82h9.82v9.82c0,5.42-4.39,9.82-9.82,9.82S0,54.5,0,49.08Z"/>
      <path class="cls-2" d="M19.63,0v19.63h9.82c5.42,0,9.82-4.39,9.82-9.82S34.87,0,29.45,0h-9.82Z"/>
      <path class="cls-4" d="M0,9.82c0,5.42,4.39,9.82,9.82,9.82h9.82V0h-9.82C4.39,0,0,4.39,0,9.82Z"/>
      <path class="cls-5" d="M0,29.45c0,5.42,4.39,9.82,9.82,9.82h9.82v-19.63h-9.82c-5.42,0-9.82,4.39-9.82,9.82h0Z"/>
    </g>
  </g>
</svg>