<?xml version="1.0" encoding="UTF-8"?>
<svg id="Capa_2" data-name="Capa 2" xmlns="http://www.w3.org/2000/svg" viewBox="0 0 251.44 251.44">
  <defs>
    <style>
      .cls-1 {
        fill: #fff;
      }
    </style>
  </defs>
  <g id="Capa_1-2" data-name="Capa 1">
    <g>
      <circle cx="125.72" cy="125.72" r="125.72"/>
      <g>
        <path class="cls-1" d="M107.92,100.99c0-23.38,14.82-37.83,40.37-40.17v-6.82c0-.54-.44-.99-.99-.99h-29.85c-.41,0-.78.26-.93.65l-15.96,43.61c-.14.39-.51.65-.93.65h-.15c-.41,0-.78-.26-.93-.65l-15.96-43.61c-.14-.39-.51-.65-.93-.65h-32.14c-.54,0-.99.44-.99.99v131.4c0,.54.44.99.99.99h22.87c.54,0,.99-.44.99-.99v-58.44l-1.49-36.23c-.02-.56.42-1.03.99-1.03.42,0,.79.26.93.65l23.68,65.39c.31.87,1.54.87,1.85,0l12.86-35.5c-2.91-5.58-4.28-12.08-4.28-19.24Z"/>
        <path class="cls-1" d="M169.07,117.61l-13.95-2.48c-2.57-.45-4.83-.98-6.83-1.6v26.72l7.59,1.25c12.99,2.1,17.96,6.5,17.96,15.86,0,11.47-7.45,17.77-21.02,17.77-1.51,0-3.02-.09-4.53-.25-8.67-.94-17.28-4.58-24.84-11.24-1.2-1.06-2.38-2.19-3.53-3.4-.4-.42-1.06-.42-1.45,0l-15.33,16.92c-.33.36-.35.92-.03,1.3,10.19,12.23,26.98,19.97,48.76,19.97,33.44,0,51.02-18.34,51.02-43.37,0-21.02-12.42-33.63-33.82-37.45Z"/>
        <path class="cls-1" d="M156.08,83.79c11.63,0,21.29,4.46,28.31,11.82.4.42,1.07.42,1.45-.01l14.93-16.69c.33-.37.34-.94,0-1.32-9.42-10.51-24.87-17.11-44.9-17.11-2.63,0-5.15.12-7.59.34v23.82c2.27-.56,4.85-.85,7.78-.85Z"/>
        <path class="cls-1" d="M123.45,132.48v-5.52l1.49-36.23c.02-.56-.42-1.03-.99-1.03-.42,0-.79.26-.93.65l-10.82,29.88c2.54,4.86,6.24,9.01,11.25,12.25Z"/>
      </g>
    </g>
  </g>
</svg>